<?xml version="1.0" encoding="utf-8"?>
<!-- Generator: Adobe Illustrator 24.2.1, SVG Export Plug-In . SVG Version: 6.00 Build 0)  -->
<svg version="1.1" id="Layer_1" xmlns="http://www.w3.org/2000/svg" xmlns:xlink="http://www.w3.org/1999/xlink" x="0px" y="0px"
	 width="79.434px" height="27.789px" viewBox="0 0 79.434 27.789" enable-background="new 0 0 79.434 27.789" xml:space="preserve">
<g>
	<path fill-rule="evenodd" clip-rule="evenodd" fill="#FF9900" d="M50.009,22.697c-4.504,3.32-11.033,5.091-16.654,5.091
		c-7.882,0-14.977-2.915-20.346-7.764c-0.422-0.381-0.044-0.901,0.462-0.604c5.793,3.371,12.956,5.398,20.356,5.398
		c4.99,0,10.48-1.033,15.527-3.175C50.117,21.321,50.755,22.144,50.009,22.697 M51.882,20.555c-0.574-0.735-3.806-0.348-5.257-0.175
		c-0.442,0.054-0.509-0.331-0.111-0.607c2.574-1.812,6.799-1.289,7.291-0.681c0.493,0.611-0.128,4.845-2.547,6.866
		c-0.371,0.31-0.725,0.145-0.56-0.267C51.241,24.334,52.459,21.294,51.882,20.555"/>
	<path fill-rule="evenodd" clip-rule="evenodd" fill="#FFFFFF" d="M46.726,6.981V5.22c0-0.267,0.202-0.445,0.445-0.445h7.885
		c0.253,0,0.456,0.182,0.456,0.445v1.508c-0.003,0.253-0.216,0.584-0.594,1.107l-4.086,5.834c1.518-0.037,3.121,0.189,4.498,0.965
		c0.31,0.175,0.395,0.432,0.418,0.685v1.879c0,0.256-0.284,0.557-0.58,0.401c-2.426-1.272-5.648-1.41-8.33,0.014
		c-0.273,0.148-0.56-0.148-0.56-0.405v-1.785c0-0.287,0.003-0.776,0.29-1.211l4.734-6.788h-4.12
		C46.929,7.423,46.726,7.244,46.726,6.981 M62.301,4.548c3.56,0,5.486,3.057,5.486,6.944c0,3.755-2.129,6.735-5.486,6.735
		c-3.495,0-5.398-3.057-5.398-6.866C56.902,7.528,58.829,4.548,62.301,4.548 M62.321,7.062c-1.768,0-1.879,2.409-1.879,3.911
		c0,1.505-0.024,4.717,1.859,4.717c1.859,0,1.947-2.591,1.947-4.17c0-1.039-0.044-2.281-0.358-3.266
		C63.62,7.396,63.084,7.062,62.321,7.062 M72.403,17.97h-2.389c-0.24-0.017-0.432-0.209-0.432-0.445L69.579,5.21
		c0.02-0.226,0.219-0.401,0.462-0.401h2.224c0.209,0.01,0.381,0.152,0.428,0.344v1.883h0.044c0.672-1.683,1.613-2.486,3.27-2.486
		c1.076,0,2.126,0.388,2.8,1.451c0.628,0.985,0.628,2.642,0.628,3.833v7.75c-0.027,0.216-0.226,0.388-0.462,0.388h-2.406
		c-0.219-0.017-0.401-0.179-0.425-0.388v-6.687c0-1.346,0.155-3.317-1.501-3.317c-0.584,0-1.12,0.391-1.387,0.985
		c-0.337,0.752-0.381,1.501-0.381,2.331v6.63C72.868,17.771,72.659,17.97,72.403,17.97"/>
	<path fill="#FFFFFF" d="M6.188,17.729c-0.986,0-1.652-0.173-2.515-0.641v4.462c0,0.345-0.025,0.37-0.37,0.444l-2.293,0.493
		l-0.247,0.025c-0.173,0-0.222-0.099-0.222-0.395V8.558c0-0.962-0.123-1.528-0.493-2.441C0.025,6.043,0,5.969,0,5.92
		c0-0.098,0.049-0.148,0.247-0.222l2.145-0.912C2.49,4.737,2.564,4.712,2.613,4.712c0.222,0,0.493,0.518,0.69,1.282
		c1.011-0.912,1.923-1.282,3.131-1.282c2.786,0,4.265,2.219,4.265,6.311C10.7,15.486,9.196,17.729,6.188,17.729z M5.596,7.202
		c-0.69,0-1.208,0.247-1.923,0.888v6.804c0.641,0.345,1.06,0.468,1.726,0.468c1.602,0,2.17-1.085,2.17-4.24
		C7.569,8.41,6.952,7.202,5.596,7.202z"/>
	<path fill="#FFFFFF" d="M17.268,17.729c-3.378,0-5.375-2.416-5.375-6.509c0-2.022,0.468-3.55,1.43-4.709
		c1.06-1.257,2.268-1.8,4.043-1.8c3.23,0,5.251,2.49,5.251,6.484C22.617,15.214,20.571,17.729,17.268,17.729z M17.218,7.202
		c-1.405,0-1.997,1.184-1.997,4.019c0,2.86,0.592,4.019,2.022,4.019c1.455,0,2.046-1.184,2.046-3.994
		C19.289,8.336,18.698,7.202,17.218,7.202z"/>
	<path fill="#FFFFFF" d="M34.216,17.085l-1.948,1.085c-0.173,0.099-0.173,0.099-0.247,0.099c-0.123,0-0.197-0.049-0.32-0.222
		l-4.61-5.917v5.3c0,0.37-0.049,0.419-0.419,0.419h-2.293c-0.37,0-0.419-0.049-0.419-0.419V0.937c0-0.32,0.025-0.37,0.37-0.444
		l2.293-0.468L26.844,0c0.173,0,0.247,0.123,0.247,0.419v9.886l4.783-4.808C32.071,5.3,32.071,5.3,32.17,5.3
		c0.098,0,0.098,0,0.296,0.173l1.331,1.06c0.123,0.098,0.197,0.197,0.197,0.296c0,0.074-0.049,0.173-0.173,0.296l-4.043,3.895
		l4.536,5.473c0.099,0.098,0.148,0.222,0.148,0.296C34.462,16.888,34.388,16.986,34.216,17.085z"/>
	<path fill="#FFFFFF" d="M44.478,12.12h-6.632c0.049,2.12,0.912,3.107,2.737,3.107c0.912,0,1.874-0.271,2.81-0.764
		c0.123-0.074,0.247-0.099,0.32-0.099c0.123,0,0.197,0.074,0.271,0.222l0.616,1.479c0.074,0.148,0.074,0.173,0.074,0.271
		c0,0.271-0.197,0.419-1.011,0.764c-1.085,0.468-2.194,0.69-3.402,0.69c-1.578,0-2.81-0.419-3.673-1.208
		c-1.184-1.085-1.849-2.959-1.849-5.202c0-3.969,2.145-6.607,5.399-6.607c3.254,0,4.882,2.244,4.882,6.731
		C45.02,11.997,44.922,12.12,44.478,12.12z M39.942,7.017c-1.257,0-1.824,0.789-2.046,2.811h3.846
		C41.692,7.781,41.199,7.017,39.942,7.017z"/>
	<path fill="#FF9900" d="M35.908,2.735c0-0.579,6.083-2.773,6.972-2.426c0.312,0.122,1.375,0.086,0.481,1.331
		S35.908,3.315,35.908,2.735z"/>
</g>
<path fill="#FFFFFF" d="M138.544-233.736"/>
</svg>
