<?xml version="1.0" encoding="utf-8"?>
<!-- Generator: Adobe Illustrator 24.2.1, SVG Export Plug-In . SVG Version: 6.00 Build 0)  -->
<svg version="1.1" id="Layer_1" xmlns="http://www.w3.org/2000/svg" xmlns:xlink="http://www.w3.org/1999/xlink" x="0px" y="0px"
	 width="12.312px" height="13.233px" viewBox="0 0 12.312 13.233" enable-background="new 0 0 12.312 13.233" xml:space="preserve">
<path fill="#555148" d="M10.044,6.114C10.521,5.677,11,5.102,11.4,4.405c1.101-1.918,1.089-4.097,0.573-4.36
	c-0.608-0.308-2.36,0.974-3.46,2.892C8.12,3.622,7.867,4.287,7.726,4.879C7.206,4.743,6.642,4.663,6.029,4.663
	c-0.519,0-1.003,0.061-1.458,0.164C4.427,4.248,4.18,3.603,3.798,2.937c-1.101-1.918-2.852-3.2-3.46-2.892
	c-0.516,0.263-0.527,2.442,0.573,4.36c0.37,0.644,0.808,1.177,1.248,1.601C1.005,6.982,0.368,8.357,0.368,9.682
	c0,2.42,2.575,3.551,5.701,3.551c3.126,0,5.621-1.13,5.621-3.551C11.69,8.405,11.114,7.082,10.044,6.114z"/>
</svg>
