<?xml version="1.0" encoding="utf-8"?>
<!-- Generator: Adobe Illustrator 24.2.1, SVG Export Plug-In . SVG Version: 6.00 Build 0)  -->
<svg version="1.1" id="Layer_1" xmlns="http://www.w3.org/2000/svg" xmlns:xlink="http://www.w3.org/1999/xlink" x="0px" y="0px"
	 width="14.104px" height="14.12px" viewBox="0 0 14.104 14.12" enable-background="new 0 0 14.104 14.12" xml:space="preserve">
<g>
	<path fill="none" d="M7.073,3.896c-1.491,0-2.725,1.039-3.067,2.427H4.18v0.054v1.359v0.062H3.998
		c0.329,1.404,1.571,2.46,3.074,2.46c1.503,0,2.746-1.056,3.075-2.46H9.925V6.323h0.215C9.798,4.935,8.564,3.896,7.073,3.896z
		 M7.073,9.396c-1.281,0-2.319-1.038-2.319-2.319s1.038-2.319,2.319-2.319s2.319,1.038,2.319,2.319S8.354,9.396,7.073,9.396z"/>
	<circle fill="#F49819" cx="7.073" cy="7.077" r="2.158"/>
	<path fill="#F49819" d="M4.006,6.323c0.341-1.388,1.575-2.427,3.067-2.427s2.725,1.039,3.067,2.427h0.272h3.649
		C13.69,2.777,10.695,0,7.052,0C3.409,0,0.415,2.777,0.044,6.323h0.207H4.006z"/>
	<path fill="#F49819" d="M10.148,7.797c-0.329,1.404-1.572,2.46-3.075,2.46c-1.503,0-2.745-1.056-3.074-2.46H0.254H0.043
		c0.371,3.546,3.367,6.323,7.009,6.323s6.637-2.777,7.009-6.323h-3.65H10.148z"/>
</g>
</svg>
