<?xml version="1.0" encoding="utf-8"?>
<!-- Generator: Adobe Illustrator 24.2.1, SVG Export Plug-In . SVG Version: 6.00 Build 0)  -->
<svg version="1.1" id="Layer_1" xmlns="http://www.w3.org/2000/svg" xmlns:xlink="http://www.w3.org/1999/xlink" x="0px" y="0px"
	 width="55.943px" height="43.876px" viewBox="0 0 55.943 43.876" enable-background="new 0 0 55.943 43.876" xml:space="preserve">
<g>
	<path fill="none" d="M14.956,24.537c2.122,0,3.843-1.72,3.843-3.843s-1.72-3.843-3.843-3.843s-3.843,1.72-3.843,3.843
		S12.834,24.537,14.956,24.537z"/>
	<path fill="none" d="M27.972,16.852c-2.122,0-3.843,1.72-3.843,3.843s1.72,3.843,3.843,3.843s3.843-1.72,3.843-3.843
		S30.094,16.852,27.972,16.852z"/>
	<path fill="none" d="M40.987,16.852c-2.122,0-3.843,1.72-3.843,3.843s1.72,3.843,3.843,3.843s3.843-1.72,3.843-3.843
		S43.109,16.852,40.987,16.852z"/>
	<path fill="#555148" d="M27.346,0C9.06,0,0,10.575,0,20.695c0,5.586,2.18,10.646,6.528,14.369
		c-1.329,2.785-3.148,5.865-5.486,8.255c-1.245,1.272,6.767,0.274,12.961-2.046c0.918-0.344,1.786-0.757,2.586-1.189
		c3.144,0.83,6.711,1.306,10.757,1.306c18.286,0,28.597-9.265,28.597-20.695C55.943,9.265,45.633,0,27.346,0z M14.956,16.852
		c2.122,0,3.843,1.72,3.843,3.843s-1.72,3.843-3.843,3.843s-3.843-1.72-3.843-3.843S12.834,16.852,14.956,16.852z M27.972,24.537
		c-2.122,0-3.843-1.72-3.843-3.843s1.72-3.843,3.843-3.843s3.843,1.72,3.843,3.843S30.094,24.537,27.972,24.537z M40.987,24.537
		c-2.122,0-3.843-1.72-3.843-3.843s1.72-3.843,3.843-3.843s3.843,1.72,3.843,3.843S43.109,24.537,40.987,24.537z"/>
</g>
</svg>
