<?xml version="1.0" encoding="utf-8"?>
<!-- Generator: Adobe Illustrator 24.2.1, SVG Export Plug-In . SVG Version: 6.00 Build 0)  -->
<svg version="1.1" id="Layer_1" xmlns="http://www.w3.org/2000/svg" xmlns:xlink="http://www.w3.org/1999/xlink" x="0px" y="0px"
	 width="33.538px" height="19.208px" viewBox="0 0 33.538 19.208" enable-background="new 0 0 33.538 19.208" xml:space="preserve">
<g>
	<path fill="#FFFFFF" d="M25.213,12.14H13.951c-0.566,0-1.098-0.274-1.426-0.736L7.042,3.693H1.75C0.784,3.693,0,2.909,0,1.943
		s0.784-1.75,1.75-1.75h6.194c0.566,0,1.098,0.274,1.426,0.736l5.483,7.711h9.492l6.049-7.949c0.585-0.769,1.683-0.918,2.452-0.333
		c0.77,0.585,0.918,1.683,0.333,2.452l-6.575,8.64C26.275,11.884,25.76,12.14,25.213,12.14z"/>
	<circle fill="#FFFFFF" cx="13.09" cy="17.254" r="1.954"/>
	<circle fill="#FFFFFF" cx="26.095" cy="17.254" r="1.954"/>
</g>
</svg>
