<?xml version="1.0" encoding="utf-8"?>
<!-- Generator: Adobe Illustrator 24.2.1, SVG Export Plug-In . SVG Version: 6.00 Build 0)  -->
<svg version="1.1" id="Layer_1" xmlns="http://www.w3.org/2000/svg" xmlns:xlink="http://www.w3.org/1999/xlink" x="0px" y="0px"
	 width="193.394px" height="185.102px" viewBox="0 0 193.394 185.102" enable-background="new 0 0 193.394 185.102"
	 xml:space="preserve">
<g>
	<path fill="#FFC200" d="M96.697,12L96.697,12l23.38,47.375c1.748,3.542,5.127,5.997,9.035,6.565l52.282,7.597l-37.831,36.875
		c-2.828,2.757-4.119,6.729-3.451,10.622l8.93,52.07l-46.761-24.584c-1.748-0.919-3.666-1.378-5.584-1.378
		c-1.918,0-3.836,0.46-5.584,1.378l-46.762,24.583l8.931-52.069c0.668-3.893-0.623-7.865-3.451-10.622l-37.83-36.876l52.281-7.597
		c3.909-0.568,7.287-3.023,9.035-6.565L96.694,12C96.694,12,96.695,12,96.697,12 M96.697,0c-4.568,0-8.739,2.593-10.761,6.689
		l-23.38,47.374L10.275,61.66C5.754,62.317,2,65.483,0.588,69.827S0.353,78.94,3.624,82.129l37.831,36.875l-8.931,52.069
		c-0.772,4.502,1.078,9.052,4.774,11.737c2.091,1.519,4.567,2.292,7.055,2.292c1.91,0,3.826-0.455,5.582-1.378l46.762-24.584
		l46.761,24.584c1.756,0.923,3.673,1.378,5.583,1.378c2.488,0,4.964-0.773,7.055-2.292c3.696-2.685,5.546-7.234,4.774-11.737
		l-8.931-52.069l37.831-36.875c3.27-3.189,4.448-7.957,3.036-12.301c-1.411-4.344-5.167-7.51-9.687-8.167l-52.281-7.597
		L107.458,6.69C105.436,2.593,101.265,0,96.697,0L96.697,0z"/>
</g>
</svg>
