<?xml version="1.0" encoding="utf-8"?>
<!-- Generator: Adobe Illustrator 24.2.1, SVG Export Plug-In . SVG Version: 6.00 Build 0)  -->
<svg version="1.1" id="Layer_1" xmlns="http://www.w3.org/2000/svg" xmlns:xlink="http://www.w3.org/1999/xlink" x="0px" y="0px"
	 width="658.552px" height="306.92px" viewBox="0 0 658.552 306.92" enable-background="new 0 0 658.552 306.92"
	 xml:space="preserve">
<g id="XMLID_4_">
	<g>
		<polygon fill="#FFFFFF" points="657.096,1.456 657.096,40.876 651.376,40.876 651.376,40.766 7.166,40.766 7.166,40.876 
			1.456,40.876 1.456,1.456 		"/>
		<polygon fill="#F6C204" points="651.376,290.016 651.376,305.536 7.166,305.536 7.166,288.886 		"/>
		<polygon fill="#FFFFFF" points="651.376,40.876 651.376,290.016 7.166,288.886 7.166,40.876 		"/>
	</g>
	<g>
		<polygon fill="none" stroke="#F6C204" stroke-width="2.7688" stroke-miterlimit="10" points="651.376,290.016 651.376,305.536 
			7.166,305.536 7.166,288.886 7.166,40.876 7.166,40.766 651.376,40.766 651.376,40.876 		"/>
		<polyline fill="none" stroke="#F6C204" stroke-width="3" stroke-miterlimit="10" points="6.606,288.886 7.166,288.886 
			651.376,290.016 651.946,290.016 		"/>
		<polygon fill="none" stroke="#F6C204" stroke-width="2.9117" stroke-miterlimit="10" points="7.166,40.876 1.456,40.876 
			1.456,1.456 657.096,1.456 657.096,40.876 651.376,40.876 		"/>
	</g>
</g>
<g>
	<path fill="none" d="M330.126,106.956c-17.6,0-32.143,13.079-34.563,30.031h1.716v9.559h-1.76
		c2.266,17.116,16.885,30.405,34.607,30.405c17.721,0,32.341-13.277,34.596-30.405h-0.968v-9.559h0.924
		C362.258,120.035,347.726,106.956,330.126,106.956z M330.126,169.339c-15.125,0-27.391-12.265-27.391-27.391
		c0-15.125,12.265-27.391,27.391-27.391c15.125,0,27.391,12.265,27.391,27.391C357.516,157.073,345.251,169.339,330.126,169.339z"/>
	<path fill="#FFE6B4" d="M330.126,106.956c17.6,0,32.132,13.079,34.552,30.031h42.681c-2.475-40.613-36.246-72.888-77.464-72.888
		s-74.989,32.286-77.475,72.888h43.132C297.983,120.035,312.525,106.956,330.126,106.956z"/>
	<path fill="#FFE6B4" d="M330.126,176.94c-17.732,0-32.352-13.277-34.607-30.405H252.42c2.486,40.591,36.257,72.888,77.475,72.888
		s74.989-32.286,77.475-72.888h-42.637C362.467,163.662,347.858,176.94,330.126,176.94z"/>
	<circle fill="#FFE6B4" cx="330.126" cy="141.948" r="26.379"/>
</g>
</svg>
