<?xml version="1.0" encoding="utf-8"?>
<!-- Generator: Adobe Illustrator 24.2.1, SVG Export Plug-In . SVG Version: 6.00 Build 0)  -->
<svg version="1.1" id="Layer_1" xmlns="http://www.w3.org/2000/svg" xmlns:xlink="http://www.w3.org/1999/xlink" x="0px" y="0px"
	 width="160.558px" height="128.317px" viewBox="0 0 160.558 128.317" enable-background="new 0 0 160.558 128.317"
	 xml:space="preserve">
<g>
	<path fill="#C5B1D6" d="M1.05,107.085C-4.695,93.44,14.794,77.754,19.632,64.851s-6.848-26.195-2.816-38.292
		s20.821-9.969,26.467-12.389S57.257,0.898,66.935,0.092s9.01,3.942,17.457,4.505c5.398,0.36,15.288-8.197,24.965-0.939
		s9.01,10.699,20.085,18.395c9.008,6.259,20.641,5.01,23.088,15.204c3.379,14.078-14.078,22.525-9.01,36.603
		c4.161,11.557,24.562,30.7,14.078,42.797s-29.574,4.581-41.671,6.194c-12.097,1.613-18.636,6.951-39.981,5.068
		c-19.146-1.689-21.204-8.767-34.913-9.573S7.501,122.407,1.05,107.085z"/>
	<circle fill="#27054C" cx="62.993" cy="28.811" r="1.971"/>
	<circle fill="#27054C" cx="102.411" cy="31.627" r="1.971"/>
	<path fill="#60407A" d="M82.926,43.896c-6.466-0.647-17.333-4.028-16.008-7.261c0.86-2.099,7.532,2.975,16.008,3.63
		c9.391,0.726,15.154-3.146,15.794-0.726C99.346,41.903,90.183,44.622,82.926,43.896z"/>
</g>
</svg>
