<?xml version="1.0" encoding="utf-8"?>
<!-- Generator: Adobe Illustrator 24.2.1, SVG Export Plug-In . SVG Version: 6.00 Build 0)  -->
<svg version="1.1" id="Layer_1" xmlns="http://www.w3.org/2000/svg" xmlns:xlink="http://www.w3.org/1999/xlink" x="0px" y="0px"
	 width="181.434px" height="200.705px" viewBox="0 0 181.434 200.705" enable-background="new 0 0 181.434 200.705"
	 xml:space="preserve">
<g>
	<path fill="#CC9E6F" d="M148.215,26.444c0,0-19.962-20.605-22.111-19.377c-2.149,1.228-0.909,15.387-0.909,15.387
		S109.234,4.651,107.086,5.265c-2.149,0.614-0.614,18.109-0.614,18.109S81.822-0.602,79.366,0.012s-2.646,18.96-2.646,18.96
		S65.642,6.759,63.493,7.066s-1.764,17.637-1.764,17.637S45.934,10.555,44.092,11.476c-1.842,0.921-3.527,17.637-3.527,17.637
		s-18.413,5.078-27.554,22.346c-20.718,39.134-5.669,68.006-10.589,87.016c-3.093,11.952-4.216,23.468,2.762,31.307
		c19.894,22.347,57.104,31.886,87.936,30.847c40.976-1.381,75.659-16.421,85.481-44.659c2.959-8.507,3.647-22.996,1.842-33.149
		c-3.794-21.344,1.228-52.179-12.277-71.209C159.824,39.859,148.215,26.444,148.215,26.444z"/>
	<g id="XMLID_3_">
		<g>
			<path fill="#603918" d="M48.86,141.822v0.017c-2.059,8.145-6.347,12.743-12.92,12.743c-6.158,0-10.767-4.029-13.411-10.866
				c1.247-2.6,3.702-6.94,7.046-9.454c0.642,5.045,3.041,8.765,5.893,8.765c2.871,0,5.27-3.754,5.912-8.817
				C45.29,136.535,47.916,140.324,48.86,141.822z"/>
			<path fill="#331704" d="M41.569,131.473c0,0.947-0.057,1.86-0.189,2.738c-1.738-1.05-3.74-1.808-5.969-1.929
				c-2.153-0.121-4.118,0.689-5.837,1.98c-0.132-0.895-0.189-1.825-0.189-2.79c0-4.374,1.284-8.197,3.173-10.143
				c0.869-0.895,1.851-1.395,2.909-1.395C38.83,119.935,41.569,125.101,41.569,131.473z"/>
			<path fill="#331704" d="M41.38,134.211c-0.642,5.063-3.041,8.817-5.912,8.817c-2.852,0-5.251-3.72-5.893-8.765
				c1.719-1.292,3.683-2.101,5.837-1.98C37.64,132.402,39.642,133.16,41.38,134.211z"/>
			<path fill="#331704" d="M35.468,119.935c-1.058,0-2.04,0.499-2.909,1.395l-1.398-1.326c2.059,0,3.74-3.22,3.74-7.181
				c0-3.978-1.681-7.198-3.74-7.198c-0.888,0-1.719,0.62-2.38,1.636l-3.154-0.654c2.928-4.322,6.536-6.802,9.785-6.802
				c8.5,0,14.885,12.261,14.885,28.602c0,5.149-0.472,9.66-1.436,13.414c-0.944-1.498-3.57-5.287-7.48-7.611
				c0.132-0.878,0.189-1.791,0.189-2.738C41.569,125.101,38.83,119.935,35.468,119.935z"/>
			<path fill="#FFFFFF" d="M31.161,105.625c2.059,0,3.74,3.22,3.74,7.198c0,3.961-1.681,7.181-3.74,7.181s-3.74-3.22-3.74-7.181
				c0-2.239,0.529-4.236,1.36-5.562C29.442,106.245,30.273,105.625,31.161,105.625z"/>
			<path fill="#331704" d="M31.161,120.004l1.398,1.326c-1.889,1.946-3.173,5.769-3.173,10.143c0,0.964,0.057,1.894,0.189,2.79
				c-3.343,2.514-5.799,6.854-7.046,9.454c-1.7-4.374-2.607-9.919-2.607-16.29c0-8.679,2.418-15.929,5.705-20.819l3.154,0.654
				c-0.831,1.326-1.36,3.323-1.36,5.562C27.421,116.784,29.102,120.004,31.161,120.004z"/>
		</g>
	</g>
	<ellipse fill="#603918" cx="88.516" cy="160.574" rx="5.064" ry="2.302"/>
	
		<path fill="none" stroke="#603918" stroke-width="3.2704" stroke-linecap="round" stroke-linejoin="round" stroke-miterlimit="10" d="
		M66.004,168.861c0,0,6.81,4.384,11.106,4.384c6.86,0,8.6-1.162,11.866-1.162s7.539,2.316,12.431,2.762
		c5.553,0.507,16.527-4.644,16.527-4.644"/>
	<g id="XMLID_1_">
		<g>
			<path fill="#603918" d="M154.307,142.092c-2.078,8.128-6.385,12.726-12.939,12.726c-6.158,0-10.767-4.029-13.411-10.883
				c1.247-2.6,3.702-6.922,7.046-9.437c0.642,5.028,3.041,8.748,5.893,8.748c2.871,0,5.27-3.754,5.912-8.799
				C150.755,136.788,153.381,140.629,154.307,142.092z"/>
			<path fill="#331704" d="M146.997,131.709c0,0.947-0.057,1.86-0.189,2.738c-1.757-1.05-3.74-1.808-5.969-1.929
				c-2.153-0.121-4.118,0.689-5.837,1.98c-0.132-0.895-0.189-1.825-0.189-2.79c0-4.374,1.284-8.197,3.192-10.143
				c0.85-0.895,1.832-1.395,2.89-1.395C144.276,120.171,146.997,125.337,146.997,131.709z"/>
			<path fill="#331704" d="M146.808,134.447c-0.642,5.045-3.041,8.799-5.912,8.799c-2.852,0-5.251-3.72-5.893-8.748
				c1.719-1.292,3.683-2.101,5.837-1.98C143.068,132.638,145.051,133.396,146.808,134.447z"/>
			<path fill="#331704" d="M140.895,120.171c-1.058,0-2.04,0.499-2.89,1.395l-1.417-1.326c2.059,0,3.74-3.22,3.74-7.198
				c0-3.978-1.681-7.198-3.74-7.198c-0.907,0-1.738,0.62-2.38,1.636l-3.154-0.654c2.928-4.322,6.536-6.802,9.785-6.802
				c8.519,0,14.904,12.278,14.904,28.62c0,5.166-0.472,9.695-1.436,13.449c-0.926-1.464-3.551-5.304-7.499-7.646
				c0.132-0.878,0.189-1.791,0.189-2.738C146.997,125.337,144.276,120.171,140.895,120.171z"/>
			<path fill="#FFFFFF" d="M136.589,105.844c2.059,0,3.74,3.22,3.74,7.198c0,3.978-1.681,7.198-3.74,7.198s-3.74-3.22-3.74-7.198
				c0-2.239,0.529-4.236,1.36-5.562C134.851,106.464,135.682,105.844,136.589,105.844z"/>
			<path fill="#331704" d="M136.589,120.24l1.417,1.326c-1.908,1.946-3.192,5.769-3.192,10.143c0,0.964,0.057,1.894,0.189,2.79
				c-3.343,2.514-5.799,6.836-7.046,9.437c-1.719-4.374-2.607-9.902-2.607-16.273c0-8.679,2.418-15.946,5.705-20.836l3.154,0.654
				c-0.831,1.326-1.36,3.323-1.36,5.562C132.849,117.02,134.53,120.24,136.589,120.24z"/>
		</g>
	</g>
	
		<line fill="none" stroke="#603918" stroke-width="3.2704" stroke-linecap="round" stroke-linejoin="round" stroke-miterlimit="10" x1="124.427" y1="105.786" x2="129.952" y2="98.42"/>
	
		<line fill="none" stroke="#603918" stroke-width="3.2704" stroke-linecap="round" stroke-linejoin="round" stroke-miterlimit="10" x1="47.541" y1="100.261" x2="52.605" y2="107.167"/>
</g>
</svg>
