<?xml version="1.0" encoding="utf-8"?>
<!-- Generator: Adobe Illustrator 24.2.1, SVG Export Plug-In . SVG Version: 6.00 Build 0)  -->
<svg version="1.1" id="Layer_1" xmlns="http://www.w3.org/2000/svg" xmlns:xlink="http://www.w3.org/1999/xlink" x="0px" y="0px"
	 width="72.922px" height="202.835px" viewBox="0 0 72.922 202.835" enable-background="new 0 0 72.922 202.835"
	 xml:space="preserve">
<g id="XMLID_13_">
	<g>
		<path fill="#CC9E6F" d="M9.779,109.783c-0.911,7.716,15.009,44.548,15.525,45.699c0.153-0.823,2.649-15.499,5.211-14.888
			c2.877,0.685,6.365,16.131,6.365,16.131s5.74-14.452,7.717-14.25c2.815,0.313,5.372,12.494,5.511,13.171
			c0.42-1.162,13.825-38.353,12.631-47.552c-1.191-9.364-21.55-79.669-26.939-80.661C30.41,26.467,11.75,92.992,9.779,109.783z
			 M36.313,0.022c10.746-1.551,38.65,80.503,36.491,109.095c-1.232,16.24-14.598,73.905-23.997,86.803
			c-3.302,4.507-11.621,11.826-20.553,2.143c-8.959-9.684-30.195-77.873-28.112-94.799C2.565,83.662,18.835,2.551,36.313,0.022z"/>
		<path fill="#603918" d="M25.303,155.482c-0.516-1.151-16.436-37.984-15.525-45.699c1.971-16.79,20.631-83.315,26.02-82.35
			c5.389,0.993,25.748,71.298,26.939,80.661c1.194,9.199-12.211,46.39-12.631,47.552c-0.139-0.677-2.696-12.858-5.511-13.171
			c-1.978-0.201-7.717,14.25-7.717,14.25s-3.488-15.445-6.365-16.131C27.952,139.984,25.456,154.659,25.303,155.482z"/>
	</g>
</g>
</svg>
