<?xml version="1.0" encoding="utf-8"?>
<!-- Generator: Adobe Illustrator 24.2.1, SVG Export Plug-In . SVG Version: 6.00 Build 0)  -->
<svg version="1.1" id="Layer_1" xmlns="http://www.w3.org/2000/svg" xmlns:xlink="http://www.w3.org/1999/xlink" x="0px" y="0px"
	 width="181.434px" height="200.705px" viewBox="0 0 181.434 200.705" enable-background="new 0 0 181.434 200.705"
	 xml:space="preserve">
<g>
	<path fill="#CC9E6F" d="M148.215,26.444c0,0-19.962-20.605-22.111-19.377c-2.149,1.228-0.909,15.387-0.909,15.387
		S109.234,4.651,107.086,5.265c-2.149,0.614-0.614,18.109-0.614,18.109S81.822-0.602,79.366,0.012s-2.646,18.96-2.646,18.96
		S65.642,6.759,63.493,7.066s-1.764,17.637-1.764,17.637S45.934,10.555,44.092,11.476s-3.527,17.637-3.527,17.637
		s-18.413,5.078-27.554,22.346c-20.718,39.134-5.669,68.006-10.589,87.016c-3.093,11.952-4.216,23.468,2.762,31.307
		c19.894,22.347,57.104,31.886,87.936,30.847c40.976-1.381,75.659-16.421,85.481-44.659c2.959-8.507,3.647-22.996,1.842-33.149
		c-3.794-21.344,1.228-52.179-12.277-71.209C159.824,39.859,148.215,26.444,148.215,26.444z"/>
	<g id="XMLID_3_">
		<g>
			<path fill="#603918" d="M48.86,141.822v0.017c-2.059,8.145-6.347,12.743-12.92,12.743c-6.158,0-10.767-4.029-13.411-10.866
				c1.247-2.6,3.702-6.94,7.046-9.454c0.642,5.045,3.041,8.765,5.893,8.765c2.871,0,5.27-3.754,5.912-8.817
				C45.29,136.535,47.916,140.324,48.86,141.822z"/>
			<path fill="#FFFFFF" d="M31.161,105.625c2.059,0,3.74,3.22,3.74,7.198c0,3.961-1.681,7.181-3.74,7.181s-3.74-3.22-3.74-7.181
				c0-2.239,0.529-4.236,1.36-5.562C29.442,106.245,30.273,105.625,31.161,105.625z"/>
			<path fill="#331704" d="M29.575,134.263c0.642,5.045,3.041,8.765,5.893,8.765c2.871,0,5.27-3.754,5.912-8.817l0.001-0.001
				c3.91,2.324,6.536,6.113,7.48,7.611c0.964-3.754,1.436-8.265,1.436-13.414c0-16.341-6.385-28.602-14.885-28.602
				c-3.249,0-6.857,2.48-9.785,6.802l3.154,0.654c0.661-1.016,1.492-1.636,2.38-1.636c2.059,0,3.74,3.22,3.74,7.198
				c0,3.961-1.681,7.181-3.74,7.181c-2.059,0-3.74-3.22-3.74-7.18c0-2.239,0.529-4.236,1.36-5.562l-3.154-0.654
				c-3.287,4.89-5.705,12.14-5.705,20.819c0,6.371,0.907,11.916,2.607,16.29C23.776,141.117,26.232,136.777,29.575,134.263
				c0-0.001,0-0.001,0-0.002"/>
		</g>
	</g>
	<ellipse fill="#603918" cx="88.516" cy="160.574" rx="5.064" ry="2.302"/>
	
		<path fill="none" stroke="#603918" stroke-width="3.2704" stroke-linecap="round" stroke-linejoin="round" stroke-miterlimit="10" d="
		M66.004,168.861c0,0,6.81,4.384,11.106,4.384c6.86,0,8.6-1.162,11.866-1.162s7.539,2.316,12.431,2.762
		c5.553,0.507,16.527-4.644,16.527-4.644"/>
	<g>
		<path fill="none" d="M136.38,133.605c-0.474,0.261-0.934,0.56-1.377,0.892c0,0,0,0,0,0.001c0,0,0,0,0,0
			C135.446,134.165,135.905,133.866,136.38,133.605z"/>
		<path fill="none" d="M144.286,141.297c0.276-0.352,0.537-0.745,0.779-1.176C144.822,140.551,144.562,140.945,144.286,141.297z"/>
		<path fill="none" d="M132.849,113.043c0,2.734,0.795,5.111,1.96,6.329C133.644,118.154,132.849,115.777,132.849,113.043
			C132.849,113.043,132.849,113.043,132.849,113.043z"/>
		<path fill="none" d="M135.479,119.917c-0.234-0.14-0.458-0.323-0.67-0.545C135.021,119.593,135.245,119.777,135.479,119.917z"/>
		<path fill="none" d="M139.966,132.523c0.025-0.002,0.049-0.006,0.074-0.008C140.016,132.517,139.991,132.522,139.966,132.523z"/>
		<path fill="none" d="M146.017,137.95c0.27-0.796,0.49-1.659,0.65-2.573C146.507,136.291,146.287,137.154,146.017,137.95z"/>
		<path fill="none" d="M146.808,134.447c-0.04,0.315-0.087,0.626-0.141,0.93C146.721,135.073,146.768,134.762,146.808,134.447
			L146.808,134.447z"/>
		<path fill="#603918" d="M146.808,134.447c-0.04,0.315-0.087,0.626-0.141,0.93c-0.161,0.914-0.38,1.777-0.65,2.573
			c-0.27,0.796-0.591,1.525-0.953,2.171c-0.242,0.43-0.502,0.824-0.779,1.176c-0.968,1.231-2.133,1.949-3.39,1.949
			c-2.852,0-5.251-3.72-5.893-8.748c0,0,0,0,0,0c0,0,0,0.001,0,0.001c-3.343,2.514-5.799,6.835-7.046,9.437
			c2.644,6.854,7.253,10.882,13.411,10.882c6.554,0,10.861-4.598,12.939-12.725C153.381,140.628,150.756,136.789,146.808,134.447z"
			/>
		<path fill="#331704" d="M135.003,134.498c0.642,5.028,3.041,8.748,5.893,8.748c1.256,0,2.422-0.719,3.39-1.949
			c0.276-0.352,0.537-0.745,0.779-1.176c0.363-0.646,0.683-1.375,0.953-2.171c0.27-0.796,0.49-1.659,0.65-2.573
			c0.054-0.305,0.101-0.615,0.141-0.93l0,0c3.948,2.342,6.573,6.181,7.499,7.646c0,0,0,0,0,0c0.964-3.754,1.436-8.283,1.436-13.449
			c0-16.342-6.385-28.62-14.904-28.62c-3.249,0-6.857,2.48-9.785,6.802l3.154,0.654c0.642-1.016,1.473-1.636,2.38-1.636c0,0,0,0,0,0
			s0,0,0.001,0c2.059,0,3.74,3.22,3.74,7.198c0,3.978-1.681,7.198-3.74,7.198c-0.386,0-0.759-0.113-1.11-0.323
			c-0.234-0.14-0.458-0.323-0.67-0.545c-1.166-1.218-1.96-3.595-1.96-6.329c0,0,0,0,0,0c0-2.239,0.529-4.236,1.36-5.562l-0.001,0
			l-3.154-0.654c-3.287,4.89-5.705,12.157-5.705,20.836c0,6.371,0.888,11.899,2.607,16.273c0,0,0,0,0,0
			C129.204,141.334,131.66,137.013,135.003,134.498C135.003,134.499,135.003,134.498,135.003,134.498
			C135.003,134.498,135.003,134.498,135.003,134.498"/>
		<polygon fill="#331704" points="132.125,106.158 131.055,106.827 130.975,107.848 133.392,108.528 134.209,107.481 
			133.486,106.276 		"/>
		<path fill="#FFFFFF" d="M132.849,113.043c0,2.735,0.795,5.111,1.96,6.329c0.212,0.221,0.436,0.405,0.67,0.545
			c0.351,0.21,0.724,0.323,1.11,0.323c2.059,0,3.74-3.22,3.74-7.198c0-3.978-1.681-7.198-3.74-7.198c0,0,0,0-0.001,0
			c-0.907,0-1.738,0.62-2.379,1.636c0,0,0,0.001,0,0.001l0.001,0C133.378,108.807,132.849,110.804,132.849,113.043z"/>
	</g>
	
		<line fill="none" stroke="#603918" stroke-width="3.2704" stroke-linecap="round" stroke-linejoin="round" stroke-miterlimit="10" x1="124.427" y1="105.786" x2="129.952" y2="98.42"/>
	
		<line fill="none" stroke="#603918" stroke-width="3.2704" stroke-linecap="round" stroke-linejoin="round" stroke-miterlimit="10" x1="47.541" y1="100.261" x2="52.605" y2="107.167"/>
</g>
<polygon fill="#331704" points="29.285,105.009 25.627,106.607 25.719,107.73 27.408,108.247 28.781,107.261 "/>
</svg>
