<?xml version="1.0" encoding="utf-8"?>
<!-- Generator: Adobe Illustrator 24.2.1, SVG Export Plug-In . SVG Version: 6.00 Build 0)  -->
<svg version="1.1" id="Layer_1" xmlns="http://www.w3.org/2000/svg" xmlns:xlink="http://www.w3.org/1999/xlink" x="0px" y="0px"
	 width="241.516px" height="212.626px" viewBox="0 0 241.516 212.626" enable-background="new 0 0 241.516 212.626"
	 xml:space="preserve">
<g>
	<g>
		<g id="XMLID_14_">
			<g>
				<path fill="#CC9E6F" d="M120.08,204.755l-0.642,0.266c0,0-24.915,9.819-38.398-1.425c-6.342-5.293-1.347-9.694-0.47-13.812
					c1.519-7.094-14.11-22.926-28.689-60.855c-6.562-17.069-6.405-86.052,11.385-102.417c17.774-16.365,129.43-24.179,140.095,5.685
					c10.664,29.879,2.85,86.772-12.09,123.041c-10.054,24.414-14.219,40.544-28.439,49.783c-5.966,3.884-34.64,9.459-41.249,2.13
					C120.895,206.384,120.394,205.585,120.08,204.755z"/>
			</g>
			<g>
				
					<path fill="none" stroke="#CC9E6F" stroke-width="3.7888" stroke-linecap="round" stroke-linejoin="round" stroke-miterlimit="10" d="
					M118.734,132.484c10.664,35.548,8.535,43.378,8.535,49.783c0,5.732-10.054,15.19-7.188,22.488
					c0.313,0.83,0.814,1.629,1.503,2.396c6.609,7.329,35.282,1.754,41.249-2.13c14.219-9.239,18.385-25.369,28.439-49.783
					c14.94-36.269,22.754-93.162,12.09-123.041C192.696,2.334,81.04,10.148,63.266,26.513
					C45.476,42.878,45.319,111.86,51.881,128.93c14.579,37.929,30.208,53.761,28.689,60.855c-0.877,4.119-5.873,8.519,0.47,13.812
					c13.483,11.244,38.398,1.425,38.398,1.425"/>
			</g>
		</g>
		<path fill="#CC9E6F" d="M157.882,23.118c0,0,68.784,32.922,72.311,71.136s-23.516,99.355-29.395,102.882
			s-35.107,13.794-44.092,7.055c-7.055-5.291-1.176-12.934,4.115-19.401c5.291-6.467,5.291-23.516,5.879-29.395
			c0.588-5.879-127.574-45.268-127.574-54.675S20.902-5.101,157.882,23.118z"/>
		
			<path fill="none" stroke="#603918" stroke-width="3.132" stroke-linecap="round" stroke-linejoin="round" stroke-miterlimit="10" d="
			M111.732,142.167c0,0,8.231,37.038,8.231,42.329c0,5.291-2.352,8.231-1.176,15.873"/>
		
			<path fill="none" stroke="#603918" stroke-width="3.132" stroke-linecap="round" stroke-linejoin="round" stroke-miterlimit="10" d="
			M147.888,201.251c0,0-0.882,3.527-0.588,7.055"/>
		
			<path fill="none" stroke="#603918" stroke-width="3.132" stroke-linecap="round" stroke-linejoin="round" stroke-miterlimit="10" d="
			M132.48,200.326c0,0-1.641,4.452-0.61,8.292"/>
		
			<path fill="none" stroke="#603918" stroke-width="3.132" stroke-linecap="round" stroke-linejoin="round" stroke-miterlimit="10" d="
			M104.971,198.311c0,0-1.764,4.703,1.176,7.937"/>
		
			<path fill="none" stroke="#603918" stroke-width="3.132" stroke-linecap="round" stroke-linejoin="round" stroke-miterlimit="10" d="
			M89.686,196.842c0,0-1.47,4.997,1.47,9.112"/>
		
			<path fill="none" stroke="#603918" stroke-width="3.132" stroke-linecap="round" stroke-linejoin="round" stroke-miterlimit="10" d="
			M170.522,196.254c0,0,12.934-42.035,12.052-62.317"/>
	</g>
	<g>
		<path fill="#F0E0C3" d="M2.383,64.565c-0.679-9.507-0.236-17.584,5.585-25.574c2.013-2.764-10.078,0.489-7.643-2.352
			C25.017,7.832,69.142,2.401,116.141,0.19c38.329-1.804,105.234,8.818,125.222,50.559c1.778,3.713-12.644-3.6-10.582-0.588
			c3.806,5.56,3.558,17.021,2.939,23.516c-1.323,13.889-10.179,22.08-11.758,24.692c-1.806,2.987-2.992-9.718-5.291-7.055
			c-7.088,8.211-18.854,17.882-28.88,23.516c-2.079,1.168,2.257-6.131,0.12-5.053c-15.039,7.58-31.218,12.987-44.433,17.399
			c-12.778,4.266-19.527,1.611-22.928,0.882c-4.496-0.963-15.433-1.306-36.156-5.291c-12.709-2.444-35.715-8.682-54.148-20.064
			c-1.821-1.124,0.75,5.858-0.968,4.632c-5.092-3.636-14.012-15.881-17.694-20.457c-1.564-1.944,0.002,7.184-1.486,5.245
			C2.824,82.642,2.805,70.476,2.383,64.565z"/>
		<path fill="#F0E0C3" d="M112.158,20.474c32.785,1.395,71.898,24.573,70.988,50.056c-0.683,19.112-13.646,33.492-23.435,48.463
			c-3.868,5.916-13.652,17.292-16.382,18.43c-1.992,0.83,1.916-7.625-0.455-6.143c-20.022,12.514-21.843,29.123-26.166,29.351
			c-2.503-0.228-10.921-25.483-35.494-39.135c-9.001-5.001-34.584-21.843-39.135-44.595S69.383,18.654,112.158,20.474z"/>
		
			<path fill="none" stroke="#CC9E6F" stroke-width="3.132" stroke-linecap="round" stroke-linejoin="round" stroke-miterlimit="10" d="
			M43.83,72.795c0,0-1.176,4.115,1.176,12.346s4.703,11.17,4.703,11.17l1.764-8.818c0,0,13.522,18.813,28.807,27.631"/>
		
			<path fill="none" stroke="#CC9E6F" stroke-width="3.132" stroke-linecap="round" stroke-linejoin="round" stroke-miterlimit="10" d="
			M179.634,53.101c0,0,9.406,7.055,10.582,22.928c0.565,7.622-1.764,15.873-1.764,15.873l-6.467-6.467
			c0,0-2.939,10.582-8.818,18.225c-3.305,4.296-9.406,8.818-9.406,8.818"/>
	</g>
</g>
</svg>
