<?xml version="1.0" encoding="utf-8"?>
<!-- Generator: Adobe Illustrator 24.2.1, SVG Export Plug-In . SVG Version: 6.00 Build 0)  -->
<svg version="1.1" id="Layer_1" xmlns="http://www.w3.org/2000/svg" xmlns:xlink="http://www.w3.org/1999/xlink" x="0px" y="0px"
	 width="131.077px" height="212.474px" viewBox="0 0 131.077 212.474" enable-background="new 0 0 131.077 212.474"
	 xml:space="preserve">
<g id="XMLID_4_">
	<g>
		<polygon fill="#FFFFFF" points="2838.885,-968.473 2838.885,-929.053 2833.165,-929.053 2833.165,-929.163 2188.955,-929.163 
			2188.955,-929.053 2183.245,-929.053 2183.245,-968.473 		"/>
		<polygon fill="#F6C204" points="2833.165,-679.913 2833.165,-664.393 2188.955,-664.393 2188.955,-681.043 		"/>
		<polygon fill="#FFFFFF" points="2833.165,-929.053 2833.165,-679.913 2188.955,-681.043 2188.955,-929.053 		"/>
	</g>
	<g>
		<polygon fill="none" stroke="#F6C204" stroke-width="2.7688" stroke-miterlimit="10" points="2833.165,-679.913 
			2833.165,-664.393 2188.955,-664.393 2188.955,-681.043 2188.955,-929.053 2188.955,-929.163 2833.165,-929.163 
			2833.165,-929.053 		"/>
		<polyline fill="none" stroke="#F6C204" stroke-width="3" stroke-miterlimit="10" points="2188.395,-681.043 2188.955,-681.043 
			2833.165,-679.913 2833.735,-679.913 		"/>
		<polygon fill="none" stroke="#F6C204" stroke-width="2.9117" stroke-miterlimit="10" points="2188.955,-929.053 
			2183.245,-929.053 2183.245,-968.473 2838.885,-968.473 2838.885,-929.053 2833.165,-929.053 		"/>
	</g>
</g>
<g>
	<g id="XMLID_2_">
		<g>
			<path fill="#C6D7EA" d="M905.46,143.14c-4.9-6.316-8.224-12.802-8.296-18.374c-0.036-2.741,0.735-5.536,2.105-8.278
				c6.782-13.617,28.228-26.132,38.271-26.714c18.105-1.039,49.344,30.486,56.269,48.242c4.067,10.428-2.302,37.33-2.392,42.096
				c-0.09,4.757,23.875,40.618,4.703,84.613c-14.477,33.227-59.816,50.526-59.816,50.526l-1.245,0.215
				c-4.56-7.633-8.842-12.327-8.842-12.327s6.504-30.979-9.12-52.873c-1.075-9.845-0.358-19.494,1.353-28.497
				c5.581-29.33,21.841-51.789,21.841-51.789C931.485,167.776,915.297,155.825,905.46,143.14z"/>
			<path fill="#C6D7EA" d="M806.54,403.843c-8.761-1.254-14.262-2.329-14.262-2.329s-17.586,7.964-35.064,11.682
				c-2.195,0.475-4.39,0.869-6.549,1.183c-5.689,0.815-21.187,2.356-32.233,1.595c-2.374-0.161-4.542-0.43-6.361-0.833
				c-2.275-0.511-6.155-8.564-3.789-10.598c5.303-4.542,31.256-6.602,30.271-9.836c-5.294-17.406-36.757,3.861-49.182-4.542
				c-2.956-1.998-5.438-4.04-7.516-6.083c-13.169-12.954-9.908-26.007-5.348-28.721c3.377-2.025,8.134-4.399,13.644-6.719
				c14.862-6.28,35.243-12.202,49.164-9.935c19.082,3.118,50.696,15.892,50.696,15.892s12.614-18.329,40.528-26.732
				c20.775-6.262,43.718-1.684,43.718-1.684s29.599-19.503,64.242-4.372h0.009c4.811,9.774,8.735,22.468,6.629,35.816
				c-4.542,28.757-30.154,40.027-48.43,45.402C869.276,411.099,828.076,406.924,806.54,403.843z"/>
			<path fill="#222323" d="M707.485,292.327c6.925,16.887,13.581,29.814,17.783,29.814c4.327,0,10.347-13.895,16.296-31.758
				c8.358-25.102,16.573-58.024,19.772-71.238c0.896-3.7,1.398-5.85,1.398-5.85l-0.045-0.125c7.283-2.562,14.011-5.554,19.216-8.699
				c2.32-1.398,4.408-4.094,6.217-7.462l0.045,0.027c0,0,38.334-10.759,59.861,1.684c14.154,8.179,14.629,11.1,17.156,12.103
				c2.096,0.842,20.479-8.475,40.555,1.962c-17.639,2.034-22.396,17.209-22.396,17.209l0.116,0.6
				c10.007,1.398,19.969,5.321,28.381,13.527c1.989,1.935,3.727,3.996,5.259,6.146c15.624,21.895,9.12,52.873,9.12,52.873
				s4.282,4.694,8.842,12.327c1.156,1.935,2.32,4.058,3.449,6.343h-0.009c-34.643-15.131-64.242,4.372-64.242,4.372
				s-22.943-4.578-43.718,1.684c-27.915,8.403-40.528,26.732-40.528,26.732s-31.615-12.775-50.696-15.892
				c-13.922-2.267-34.302,3.655-49.164,9.935l-0.063-0.152c-24.215-2.517-55.955,12.918-55.955,12.918s-11.27-9.326-22.361-14.083
				c-19.897-8.52-33.281-5.545-33.281-5.545s-13.608-11.395-28.533-17.433c-20.336-8.233-39.427,4.022-39.427,4.022l-0.278-0.161
				c1.46-2.508,3.01-4.748,4.542-6.728c6.011-7.731,11.879-11.521,11.879-11.521s9.801-45.214,40.86-59.028
				c16.313-7.256,28.775-4.524,31.014-3.933l0.735-0.036c5.044-22.19-9.55-35.126-9.55-35.126l-0.394-0.52
				c2.159-1.819,4.524-3.574,6.952-5.035c24.385-14.629,52.184-10.141,52.184-10.141l0.305-0.188
				c2.007,3.342,4.202,6.244,6.334,8.251c3.915,3.691,14.074,7.283,25.424,10.213l-0.036,0.134c0,0,0.645,2.123,1.792,5.769
				C686.45,233.639,697.254,267.332,707.485,292.327z"/>
			<path fill="#C6D7EA" d="M917.894,221.671l0.555,0.099c-1.711,9.003-2.428,18.652-1.353,28.497
				c-1.532-2.15-3.27-4.211-5.259-6.146c-8.412-8.206-18.374-12.13-28.381-13.527l-0.116-0.6c0,0,4.757-15.176,22.396-17.209
				C909.76,214.871,913.854,217.756,917.894,221.671z"/>
			<path fill="#C6D7EA" d="M905.46,143.14c-0.484,1.057-2.473,4.004-9.093,2.069c-7.991-2.338-12.515-11.35-8.529-21.483
				c3.995-10.132,11.368-7.274,11.368-7.274l0.063,0.036c-1.371,2.741-2.141,5.536-2.105,8.278
				C897.236,130.338,900.56,136.824,905.46,143.14z"/>
			<path fill="#C6D7EA" d="M861.482,566.646c1.496,2.732,1.72,8.278-4.372,10.428c-5.724,2.016-11.771-2.356-11.771-2.356
				s0.672,5.465-2.356,7.731c-3.028,2.275-6.181,3.978-15.471-0.672c-8.744-4.372-12.56-9.944-19.171-16.143
				c-3.279-3.073-6.172-3.825-7.4-7.059c-2.428-6.405,3.879-9.783,4.04-15.131c0.17-5.644-9.075-6.155-16.484-20.184
				c-6.387-12.103-3.359-24.215-4.703-27.915c-1.344-3.682-31.677-16.107-32.896-38.647c9.012-4.802,15.453-13.232,28.228-19.924
				c10.598-5.554,23.883-9.926,28.085-11.27c0.52-0.17,0.815-0.457,0.941-0.86c2.195,1.236,17.272,9.854,24.744,18.571
				c14.576,17.012,10.419,38.002,10.419,38.002s9.406,12.237,9.084,24.215c-0.761,28.004-13.957,33.72-14.244,37.787
				c-0.34,4.703,1.684,8.403,8.86,14.343C851.144,560.976,859.969,563.905,861.482,566.646z"/>
			<path fill="#222323" d="M722.114,458.4c-11.1-3.87-19.028-12.202-34.795-17.595c-11.422-3.897-24.726-4.533-31.785-5.545
				c2.356-7.059,0-10.428,0-10.428l0.063-0.385c6.119,1.021,11.852,1.828,15.615,2.043c12.327,0.681,25.926-2.786,35.341-5.895
				l0.439,1.317c1.666,2.06,9.55,10.562,25.218,9.819c21.823-1.03,24.797-17.254,25.003-18.535
				c17.478-3.718,35.064-11.682,35.064-11.682s5.501,1.075,14.262,2.329c-3.987,10.661,2.41,18.168,1.613,20.802
				c-0.125,0.403-0.421,0.69-0.941,0.86c-4.202,1.344-17.487,5.716-28.085,11.27c-12.775,6.692-19.216,15.122-28.228,19.924
				c-4.632,2.464-9.953,3.969-17.174,3.789C729.326,460.38,725.563,459.61,722.114,458.4z"/>
			<path fill="#FBF2C4" d="M790.074,163.243c1.46-0.761,2.777-0.959,3.825-0.215c3.324,2.347,0.502,22.262-5.778,33.98
				c-1.81,3.368-3.897,6.065-6.217,7.462c-5.205,3.144-11.933,6.137-19.216,8.699c-11.807,4.166-25.066,7.212-35.574,8.009
				c-2.24,0.17-4.345,0.242-6.289,0.197c-0.77-0.018-1.657-0.063-2.652-0.143c-8.233-0.627-23.821-3.234-37.635-6.817
				c-11.351-2.929-21.51-6.522-25.424-10.213c-2.132-2.007-4.327-4.909-6.334-8.251c-6.477-10.741-11.073-25.971-5.689-30.083
				c0.869-0.663,1.756-0.887,2.652-0.779c5.635,0.672,11.7,14.495,17.828,14.029c0.538-0.045,1.084-0.072,1.639-0.099
				c9.845-0.502,20.865,1.236,30.71,3.207c1.702,0.34,3.368,0.69,4.981,1.039c5.59,1.191,10.616,2.356,14.594,3.055
				c2.231,0.403,4.121,0.654,5.608,0.699c1.299,0.036,2.607-0.018,3.924-0.152c0.009,0.027,0.009,0.054,0.009,0.081
				c0,0,0.018-0.027,0.045-0.09c4.237-0.412,8.618-1.622,13.339-3.118c1.595-0.502,3.225-1.039,4.9-1.586
				c3.028-0.994,6.208-2.034,9.586-3.01c6.119-1.756,12.882-3.306,20.578-3.969c0.618-0.063,1.236-0.108,1.872-0.152
				C778.553,174.809,785.129,165.805,790.074,163.243z"/>
			<path fill="#A29D87" d="M758.853,146.446c-3.216,5.966-6.325,11.655-9.093,16.708c-2.938,5.339-5.51,9.98-7.462,13.474
				c-2.446,4.381-3.915,6.988-3.915,6.988l0.036,0.125c-4.721,1.496-9.102,2.705-13.339,3.118
				c1.245-2.293,25.989-48.107,41.872-73.066c10.732-18.616,19.915-33.138,21.769-31.749c2.007,1.505-6.02,18.714-16.224,38.558
				C768.143,129.075,763.395,138.034,758.853,146.446z"/>
			<path fill="#C6D7EA" d="M772.497,120.6c13.85,19.073,17.389,41.406,17.577,42.643c-4.945,2.562-11.521,11.565-14.719,11.78
				c-0.636,0.045-1.254,0.09-1.872,0.152l-0.036-0.421c0,0,0.546-22.513-14.594-28.309
				C763.395,138.034,768.143,129.075,772.497,120.6z"/>
			<path fill="#FFFFFF" d="M773.447,174.755l0.036,0.421c-7.695,0.663-14.459,2.213-20.578,3.969l-0.26-0.896
				c1.577-0.412,2.813-3.834,2.813-8c0-4.434-1.406-8.036-3.135-8.036c-0.654,0-1.254,0.511-1.756,1.38l-0.806-0.439
				c2.768-5.053,5.877-10.741,9.093-16.708C773.993,152.242,773.447,174.755,773.447,174.755z"/>
			<path fill="#FFFFFF" d="M762.688,213.169l0.045,0.125c0,0-0.502,2.15-1.398,5.85l-2.49,0.287c0,0-10.231,18.58-16.287,17.066
				c-1.532-0.385-3.718-2.123-5.966-4.291c-4.605-4.434-9.451-10.661-9.451-10.661l-0.027-0.367
				C737.622,220.381,750.88,217.335,762.688,213.169z"/>
			<path fill="#FFFFFF" d="M758.844,219.431l2.49-0.287c-3.198,13.214-11.413,46.137-19.772,71.238l-0.09-0.027
				c-2.213-22.083-9.308-46.575-10.177-49.523c2.929-2.526,4.954-8.116,4.954-8.116l0.34-0.511c2.249,2.168,4.434,3.906,5.966,4.291
				C748.614,238.011,758.844,219.431,758.844,219.431z"/>
			<path fill="#C58E8A" d="M752.323,162.213c1.729,0,3.135,3.601,3.135,8.036c0,4.166-1.236,7.588-2.813,8
				c-0.107,0.027-0.215,0.045-0.323,0.045c-1.738,0-3.135-3.601-3.135-8.045c0-2.768,0.547-5.214,1.38-6.656
				C751.068,162.724,751.669,162.213,752.323,162.213z"/>
			<path fill="#FBF2C4" d="M757.214,413.195c-0.206,1.281-3.18,17.505-25.003,18.535c-15.669,0.744-23.552-7.758-25.218-9.819
				l-0.439-1.317c7.131-2.356,11.87-4.506,11.87-4.506l0.009-0.116c11.046,0.761,26.544-0.779,32.233-1.595
				C752.824,414.064,755.019,413.67,757.214,413.195z"/>
			<path fill="#FFFFFF" d="M752.645,178.249l0.26,0.896c-3.377,0.976-6.558,2.016-9.586,3.01l-0.134-0.52
				c-0.815-0.815-0.815-4.972-0.815-4.972l-0.072-0.036c1.953-3.494,4.524-8.134,7.462-13.474l0.806,0.439
				c-0.833,1.442-1.38,3.888-1.38,6.656c0,4.443,1.398,8.045,3.135,8.045C752.43,178.293,752.538,178.276,752.645,178.249z"/>
			<path fill="#C6D7EA" d="M722.419,93.698c19.306,1.039,34.696,9.406,44.533,20.094c-15.884,24.959-40.627,70.773-41.872,73.066
				c-0.018,0.009-0.036,0.009-0.054,0.009C724.497,143.758,723.521,113.317,722.419,93.698z"/>
			<path fill="#C6D7EA" d="M743.185,181.635l0.134,0.52c-1.675,0.546-3.306,1.084-4.9,1.586l-0.036-0.125
				c0,0,1.469-2.607,3.915-6.988l0.072,0.036C742.37,176.663,742.37,180.82,743.185,181.635z"/>
			<path fill="#222323" d="M741.474,290.356l0.09,0.027c-5.948,17.863-11.969,31.758-16.296,31.758
				c-4.202,0-10.858-12.927-17.783-29.814c1.102-16.475,8.224-48.717,8.681-50.741c3.342,1.675,11.476,1.81,14.54-0.296
				c0.197-0.134,0.394-0.287,0.591-0.457C732.166,243.78,739.261,268.273,741.474,290.356z"/>
			<path fill="#C6D7EA" d="M681.855,384.08c2.078,2.043,4.56,4.085,7.516,6.083c12.426,8.403,43.888-12.864,49.182,4.542
				c0.985,3.234-24.967,5.294-30.271,9.836c-2.365,2.034,1.514,10.087,3.789,10.598c1.819,0.403,3.987,0.672,6.361,0.833
				l-0.009,0.116c0,0-4.739,2.15-11.87,4.506c-9.415,3.109-23.014,6.576-35.341,5.895c-3.763-0.215-9.496-1.021-15.615-2.043
				c-13.572-2.258-29.035-5.527-29.035-5.527s-94.593,24.215-116.533-25.729c-13.088-29.787-7.749-51.297,0.224-64.985l0.278,0.161
				c0,0,19.091-12.255,39.427-4.022c14.925,6.038,28.533,17.433,28.533,17.433s13.384-2.974,33.281,5.545
				c11.091,4.757,22.361,14.083,22.361,14.083s31.74-15.436,55.955-12.918l0.063,0.152c-5.51,2.32-10.266,4.694-13.644,6.719
				C671.947,358.074,668.686,371.126,681.855,384.08z"/>
			<path fill="#222323" d="M731.297,240.833c-0.197,0.17-0.394,0.322-0.591,0.457c-3.064,2.105-11.198,1.971-14.54,0.296
				c-0.331-0.161-0.618-0.349-0.851-0.546c-1.111-0.968-4.793-7.57-4.793-7.57l-0.457-0.054c3.494-4.273,8.099-11.87,8.099-11.87
				l0.009-0.314c0.994,0.081,1.881,0.125,2.652,0.143c1.944,0.045,4.049-0.027,6.289-0.197l0.027,0.367
				c0,0,4.847,6.226,9.451,10.661l-0.34,0.511C736.251,232.717,734.226,238.307,731.297,240.833z"/>
			<path fill="#FBF2C4" d="M725.026,186.867c0.018,0,0.036,0,0.054-0.009c-0.027,0.063-0.045,0.09-0.045,0.09
				C725.035,186.921,725.035,186.894,725.026,186.867z"/>
			<path fill="#A29D87" d="M722.419,93.698c1.102,19.619,2.078,50.06,2.607,93.169c-1.317,0.134-2.625,0.188-3.924,0.152
				c-1.487-0.045-3.377-0.296-5.608-0.699l0.027-0.17c0,0-0.376-0.735-1.075-2.096c-0.278-24.188,0.555-63.4,1.836-90.069
				c0.797-16.761,1.774-28.569,2.768-28.569C720.099,65.416,721.326,74.24,722.419,93.698z"/>
			<path fill="#FFFFFF" d="M684.13,219.745l-1.836,0.573c-1.147-3.646-1.792-5.769-1.792-5.769l0.036-0.134
				c13.814,3.583,29.402,6.19,37.635,6.817l-0.009,0.314c0,0-4.605,7.597-8.099,11.87c-1.415,1.729-2.652,2.92-3.324,2.831
				C699.243,235.27,685.008,220.658,684.13,219.745z"/>
			<path fill="#C6D7EA" d="M716.282,93.985c-1.281,26.67-2.114,65.881-1.836,90.069c-4.694-9.111-23.758-46.11-38.154-74.105
				C685.913,101.438,698.222,95.095,716.282,93.985z"/>
			<path fill="#FFFFFF" d="M715.315,241.039c0.233,0.197,0.52,0.385,0.851,0.546c-0.457,2.025-7.579,34.266-8.681,50.741
				c-10.231-24.994-21.035-58.687-25.191-72.009l1.836-0.573c0.878,0.914,15.113,15.525,22.611,16.502
				c0.672,0.09,1.908-1.102,3.324-2.831l0.457,0.054C710.522,233.469,714.204,240.072,715.315,241.039z"/>
			<path fill="#A29D87" d="M697.649,175.928c-3.001-6.701-7.767-17.389-12.999-29.339c-4.461-10.159-9.254-21.223-13.608-31.516
				c-8.815-20.855-15.785-38.531-14.289-39.023c1.371-0.457,9.675,14.71,19.539,33.899c14.396,27.995,33.46,64.994,38.154,74.105
				c0.699,1.362,1.075,2.096,1.075,2.096l-0.027,0.17c-3.978-0.699-9.003-1.863-14.594-3.055l0.018-0.063
				C700.919,183.203,699.691,180.488,697.649,175.928z"/>
			<path fill="#C6D7EA" d="M637.474,571.708c-0.475,0.367-9.872,7.713-15.113,7.382c-5.384-0.34-10.768-2.016-8.072-8.744
				c1.442-3.619,6.092-3.171,13.115-6.728c7.015-3.548,20.184-11.028,22.074-13.68c2.159-3.01-8.744-2.688-15.131-17.487
				c-8.761-20.273,0.672-44.058,0.672-44.058s-4.712-17.819,1.012-30.934c6.208-14.262,19.171-22.199,19.171-22.199h0.331
				c7.059,1.012,20.363,1.648,31.785,5.545c15.767,5.393,23.695,13.724,34.795,17.595c-0.403,10.177-14.656,28.157-31.149,36.945
				c-2.526,1.353,1.774,14.907-1.344,24.215c-3.109,9.281-11.61,22.056-12.443,24.555c-2.266,6.808,5.545,10.007,4.031,19.843
				c-1.514,9.836-6.719,3.028-31.274,20.175c-13.536,9.46-18.159,3.028-17.828-1.344
				C632.439,578.552,637.178,572.111,637.474,571.708z"/>
			<path fill="#C6D7EA" d="M700.919,183.203l-0.018,0.063c-1.613-0.349-3.279-0.699-4.981-1.039l0.027-0.143
				c0,0,1.935-3.44,1.702-6.155C699.691,180.488,700.919,183.203,700.919,183.203z"/>
			<path fill="#FFFFFF" d="M697.649,175.928c0.233,2.714-1.702,6.155-1.702,6.155l-0.027,0.143
				c-9.845-1.971-20.864-3.709-30.71-3.207l-0.009-0.179c0,0,2.437-34.087,19.449-32.251
				C689.882,158.54,694.648,169.227,697.649,175.928z M689.604,171.207c0-4.443-1.398-8.045-3.135-8.045
				c-1.729,0-3.135,3.601-3.135,8.045s1.406,8.045,3.135,8.045C688.206,179.252,689.604,175.651,689.604,171.207z"/>
			<ellipse fill="#C58E8A" cx="686.468" cy="171.207" rx="3.135" ry="8.045"/>
			<path fill="#C6D7EA" d="M684.65,146.589c-17.012-1.837-19.449,32.251-19.449,32.251l0.009,0.179
				c-0.555,0.027-1.102,0.054-1.639,0.099c-6.128,0.466-12.193-13.357-17.828-14.029l0.036-0.224c0,0,4.578-27.637,25.263-49.792
				C675.396,125.366,680.188,136.43,684.65,146.589z"/>
			<path fill="#C6D7EA" d="M509.725,178.204l0.108,0.296c0,0,15.857,18.67,21.689,45.984l0.197-0.036
				c20.685-16.143,46.325-1.738,46.325-1.738s4.802-5.957,11.297-11.395l0.394,0.52c0,0,14.593,12.936,9.55,35.126l-0.735,0.036
				c-2.24-0.591-14.701-3.324-31.014,3.933c-31.059,13.814-40.86,59.028-40.86,59.028s-5.868,3.789-11.879,11.521l-0.224-0.17
				c0,0-41.111-2.625-66.983-46.692c-18.625-31.722,8.959-85.841,8.959-85.841s-7.328-32.287-2.446-42.526
				c4.882-10.24,44.775-51.977,56.985-50.401c10.311,1.335,32.797,15.006,39.561,29.187c1.245,2.616,1.962,5.25,1.962,7.83
				c0,5.725-4.094,12.658-9.845,19.395C532.444,164.345,516.767,175.749,509.725,178.204z"/>
			<path fill="#C6D7EA" d="M563.924,128.798c6.128,9.227-2.356,26.428-9.953,27.825c-8.349,1.541-11.064-4.246-11.064-4.246
				l-0.143-0.116c5.751-6.737,9.845-13.671,9.845-19.395c0-2.58-0.717-5.214-1.962-7.83l0.331-0.152
				C550.979,124.883,559.033,121.451,563.924,128.798z"/>
		</g>
		<g>
			
				<path fill="none" stroke="#6D180C" stroke-width="1.7917" stroke-linecap="round" stroke-linejoin="round" stroke-miterlimit="10" d="
				M666.912,202.222c7.355-5.518,44.166-6.065,49.075-4.909c2.67,0.636,4.793,3.431,6.271,3.476c1.72,0.063,5.456-4.085,9.272-4.909
				c6.62-1.415,35.87-1.003,43.082,3.001"/>
			
				<path fill="none" stroke="#36434C" stroke-width="1.7917" stroke-linecap="round" stroke-linejoin="round" stroke-miterlimit="10" d="
				M673.478,369.738c0,0,40.86-22.71,59.78-19.682"/>
			
				<path fill="none" stroke="#36434C" stroke-width="1.7917" stroke-linecap="round" stroke-linejoin="round" stroke-miterlimit="10" d="
				M681.801,384.107c0,0,0.018-0.009,0.054-0.027c1.478-0.86,35.243-20.3,56.699-15.857"/>
			
				<path fill="none" stroke="#36434C" stroke-width="1.7917" stroke-linecap="round" stroke-linejoin="round" stroke-miterlimit="10" d="
				M902.62,135.167c0,0,5.106-13.169,20.103-15.077"/>
			
				<path fill="none" stroke="#36434C" stroke-width="1.7917" stroke-linecap="round" stroke-linejoin="round" stroke-miterlimit="10" d="
				M913.89,150.495c0,0,5.904-17.066,24.009-16.027"/>
			
				<path fill="none" stroke="#36434C" stroke-width="1.7917" stroke-linecap="round" stroke-linejoin="round" stroke-miterlimit="10" d="
				M927.364,161.147c0,0,8.045-14.208,20.918-12.999"/>
			
				<path fill="none" stroke="#36434C" stroke-width="1.7917" stroke-linecap="round" stroke-linejoin="round" stroke-miterlimit="10" d="
				M547.459,145.604c0,0-5.25-16.627-25.505-18.204"/>
			
				<path fill="none" stroke="#36434C" stroke-width="1.7917" stroke-linecap="round" stroke-linejoin="round" stroke-miterlimit="10" d="
				M535.463,156.829c0,0-12.972-16.09-27.628-15.301"/>
			
				<path fill="none" stroke="#36434C" stroke-width="1.7917" stroke-linecap="round" stroke-linejoin="round" stroke-miterlimit="10" d="
				M520.852,168.986c0,0-7.946-13.76-22.602-13.411"/>
			
				<path fill="none" stroke="#C6D7EA" stroke-width="1.7917" stroke-linecap="round" stroke-linejoin="round" stroke-miterlimit="10" d="
				M630.307,256.672c0,0-35.816,41.371-19.503,86.101"/>
			
				<path fill="none" stroke="#C6D7EA" stroke-width="1.7917" stroke-linecap="round" stroke-linejoin="round" stroke-miterlimit="10" d="
				M811.413,252.139c0,0,35.825,28.748,30.101,69.447"/>
			
				<path fill="none" stroke="#9BA9B9" stroke-width="1.7917" stroke-linecap="round" stroke-linejoin="round" stroke-miterlimit="10" d="
				M718.164,221.545c0,0-4.605,7.597-8.099,11.87c-1.415,1.729-2.652,2.92-3.324,2.831c-7.498-0.976-21.733-15.588-22.611-16.502
				c-0.027-0.027-0.045-0.045-0.045-0.045"/>
			
				<path fill="none" stroke="#9BA9B9" stroke-width="1.7917" stroke-linecap="round" stroke-linejoin="round" stroke-miterlimit="10" d="
				M727.14,221.545c0,0,4.847,6.226,9.451,10.661c2.249,2.168,4.434,3.906,5.966,4.291c6.056,1.514,16.287-17.066,16.287-17.066"/>
		</g>
	</g>
	
		<path fill="none" stroke="#C4CFD7" stroke-width="1.7917" stroke-linecap="round" stroke-linejoin="round" stroke-miterlimit="10" d="
		M830.251,240.701c0,0,19.674-16.311,48.429-10.93"/>
	
		<path fill="none" stroke="#C4CFD7" stroke-width="1.7917" stroke-linecap="round" stroke-linejoin="round" stroke-miterlimit="10" d="
		M601.052,247.596c0,0,7.315-0.378,11.477,4.414"/>
	
		<path fill="none" stroke="#42170F" stroke-width="1.2901" stroke-linecap="round" stroke-linejoin="round" stroke-miterlimit="10" d="
		M790.229,160.07c0,0,8.311-4.046,11.351,0.252c2.781,3.932-4.581,8.574-5.957,6.056c-1.662-3.042,7.227-6.45,9.383-2.204
		c2.227,4.386-6.501,9.541-7.921,7.261c-2.705-4.345,8.989-4.243,10.494-1.273c0.981,1.936,0.294,4.671-1.345,5.908
		c-2.045,1.544-6.758,2.24-7.909,0.467c-1.236-1.906,1.796-3.519,5.242-3.394c3.051,0.11,6.452,1.715,7.132,3.75
		c1.901,5.694-8.137,7.415-10.605,5.356c-1.841-1.536,2.657-3.817,6.73-3.12c4.155,0.711,5.139,3.599,4.837,5.764
		c-0.401,2.876-5.048,5.824-9.287,4.701c-3.955-1.048-1.869-4.705,2.394-4.176c7.648,0.949,5.773,7.646,5.773,7.646"/>
	<linearGradient id="SVGID_1_" gradientUnits="userSpaceOnUse" x1="688.4384" y1="198.3111" x2="688.4384" y2="148.1756">
		<stop  offset="0" style="stop-color:#FFFFFF;stop-opacity:0"/>
		<stop  offset="0.0363" style="stop-color:#EFEBEA;stop-opacity:0.0484"/>
		<stop  offset="0.1455" style="stop-color:#C1B3B1;stop-opacity:0.1942"/>
		<stop  offset="0.255" style="stop-color:#9B847F;stop-opacity:0.3402"/>
		<stop  offset="0.3622" style="stop-color:#7B5D57;stop-opacity:0.4833"/>
		<stop  offset="0.4667" style="stop-color:#623E38;stop-opacity:0.6228"/>
		<stop  offset="0.5677" style="stop-color:#502821;stop-opacity:0.7575"/>
		<stop  offset="0.6637" style="stop-color:#461B14;stop-opacity:0.8856"/>
		<stop  offset="0.7494" style="stop-color:#42170F"/>
	</linearGradient>
	<path fill="url(#SVGID_1_)" d="M716.778,168.553c0,9.23-8.856,16.874-28.339,16.712c-20.861-0.174-28.339-7.482-28.339-16.712
		s13.081-13.23,28.733-13.23S716.778,159.323,716.778,168.553z"/>
	<linearGradient id="SVGID_2_" gradientUnits="userSpaceOnUse" x1="751.6567" y1="198.3648" x2="751.6567" y2="148.2293">
		<stop  offset="0" style="stop-color:#FFFFFF;stop-opacity:0"/>
		<stop  offset="0.0363" style="stop-color:#EFEBEA;stop-opacity:0.0484"/>
		<stop  offset="0.1455" style="stop-color:#C1B3B1;stop-opacity:0.1942"/>
		<stop  offset="0.255" style="stop-color:#9B847F;stop-opacity:0.3402"/>
		<stop  offset="0.3622" style="stop-color:#7B5D57;stop-opacity:0.4833"/>
		<stop  offset="0.4667" style="stop-color:#623E38;stop-opacity:0.6228"/>
		<stop  offset="0.5677" style="stop-color:#502821;stop-opacity:0.7575"/>
		<stop  offset="0.6637" style="stop-color:#461B14;stop-opacity:0.8856"/>
		<stop  offset="0.7494" style="stop-color:#42170F"/>
	</linearGradient>
	<path fill="url(#SVGID_2_)" d="M779.996,167.724c0,9.23-8.856,16.874-28.339,16.712c-20.861-0.174-28.339-7.482-28.339-16.712
		c0-9.23,13.081-13.23,28.733-13.23S779.996,158.495,779.996,167.724z"/>
	<path fill="#FBF2C4" d="M729.775,169.795c0,1.3-4.45-0.168-10.115-0.168s-10.4,1.468-10.4,0.168c0-1.3,4.592-2.354,10.258-2.354
		C725.182,167.44,729.775,168.494,729.775,169.795z"/>
	<path fill="#42170F" d="M790.896,160.457c0.33,1.209-3.456,0.776-7.801,1.962s-7.604,3.544-7.934,2.335
		c-0.33-1.209,2.924-3.151,7.27-4.338C786.776,159.229,790.566,159.248,790.896,160.457z"/>
	<path fill="#42170F" d="M645.076,163.635c-0.341,1.248,3.715,0.841,8.388,2.117s8.194,3.753,8.535,2.504
		c0.341-1.249-3.171-3.295-7.844-4.571S645.417,162.387,645.076,163.635z"/>
	
		<path fill="none" stroke="#36434C" stroke-width="1.7917" stroke-linecap="round" stroke-linejoin="round" stroke-miterlimit="10" d="
		M675.572,354.859c-5.272,3.149-8.825,20.138,12.864,34.809c12.424,8.404,43.889-12.864,49.186,4.54
		c0.985,3.237-24.971,5.297-30.268,9.837c-2.369,2.03,1.513,10.089,3.784,10.594c10.289,2.286,31.686,0.234,38.592-0.757"/>
</g>
<g>
	<path fill="#E84882" d="M1788.801,365.094c0-4.274,1.395-7.846,4.194-10.726c2.789-2.88,6.321-4.314,10.595-4.314
		c6.743,0,12.823-1.023,18.251-3.08s9.743-5.388,12.943-9.993c3.211-4.595,4.816-10.686,4.816-18.241
		c0-5.589-1.365-10.525-4.074-14.799c-2.709-4.274-6.411-7.645-11.097-10.104c-4.686-2.468-9.983-3.702-15.903-3.702
		c-4.605,0-8.92,0.823-12.943,2.468c-4.033,1.645-7.686,3.863-10.977,6.652c-2.629,2.308-5.789,3.993-9.492,5.057
		c-3.702,1.074-7.445,0.211-11.217-2.589c-3.953-2.96-6.09-6.492-6.411-10.605c-0.331-4.104,1.234-7.886,4.686-11.338
		c5.91-6.08,12.853-10.806,20.829-14.177c7.977-3.371,16.485-5.057,25.525-5.057c11.338,0,21.572,2.589,30.702,7.766
		c9.12,5.177,16.395,12.12,21.823,20.839c5.418,8.709,8.137,18.572,8.137,29.589c0,8.217-1.234,15.492-3.702,21.823
		c-2.468,6.331-5.96,11.749-10.475,16.274c-4.525,4.525-9.783,8.137-15.783,10.846c-6.01,2.709-12.542,4.645-19.605,5.799
		c-0.331,0.161-0.622,0.331-0.863,0.492c-0.251,0.161-0.371,0.411-0.371,0.732v9.13c0,4.274-1.395,7.846-4.194,10.726
		c-2.799,2.88-6.331,4.314-10.605,4.314c-4.274,0-7.806-1.435-10.595-4.314c-2.799-2.88-4.194-6.452-4.194-10.726V365.094z
		 M1802.367,443.013c-4.776,0-8.428-1.274-10.977-3.823c-2.549-2.548-3.823-6.201-3.823-10.977v-4.184
		c0-4.766,1.274-8.428,3.823-10.977c2.548-2.549,6.201-3.823,10.977-3.823h3.201c4.766,0,8.418,1.274,10.977,3.823
		c2.538,2.548,3.823,6.211,3.823,10.977v4.184c0,4.776-1.284,8.428-3.823,10.977c-2.559,2.548-6.211,3.823-10.977,3.823H1802.367z"
		/>
</g>
<g>
	<g>
		<path fill="none" stroke="#000000" stroke-width="2.5334" stroke-linecap="round" stroke-linejoin="round" d="M1438.082,378.65
			c0,0-2.14,13.196,6.063,22.825"/>
		<g id="XMLID_7_">
			<g>
				<path fill="#FFFFFF" d="M1505.249,421.213c3.078,2.837-0.995,14.052-16.049,40.888c2.137-5.961,3.35-12.124,3.451-18.303
					c0.093-5.876-1.041-10.818-3.016-14.992C1492.301,426.669,1502.567,418.734,1505.249,421.213z"/>
				<path fill="#E17E9F" d="M1205.533,425.487l-0.583-0.233c0,0-1.896-62.774,20.93-98.913c20.013-31.686,46.6-41.844,52.305-46.6
					s19.026-23.774,38.043-23.774c0,0,47.719-24.792,103.739,5.844c56.02,30.637,52.118,91.157,52.118,91.157
					s13.787,31.391-1.904,57.784l-0.187,0.389c7.904,3.692,15.567,9.054,19.64,17.666c1.974,4.173,3.109,9.116,3.016,14.992
					c-0.101,6.179-1.313,12.342-3.451,18.303c0,0.008,0,0.008-0.008,0.016c-8.386,23.378-30.979,43.624-55.981,49.686
					c-27.847,6.746-86.377,8.526-122.143-16.399c-3.396,16.585-3.497,36.746,9.917,50.634
					c26.627,27.582,93.201,43.748,88.444,51.357c-4.749,7.609-123.27,29.354-182.601-41.844
					C1189.297,510.512,1192.639,457.189,1205.533,425.487z"/>
			</g>
			<g>
			</g>
		</g>
		<path fill="none" stroke="#E84882" stroke-width="4.3787" stroke-linecap="round" stroke-miterlimit="10" d="M1416.667,381.646
			c0,0,16.438,13.561,22.602,16.849s22.603,6.986,27.123,10.685"/>
		<path fill="none" stroke="#E84882" stroke-width="4.3787" stroke-linecap="round" stroke-miterlimit="10" d="M1437.625,377.537
			c0,0-2.055,13.151,2.877,20.548"/>
		<path fill="none" stroke="#E84882" stroke-width="4.3787" stroke-linecap="round" stroke-miterlimit="10" d="M1324.004,461.158
			c0,0-6.986,17.26-9.041,26.301"/>
		<path fill="none" stroke="#E84882" stroke-width="4.3787" stroke-linecap="round" stroke-miterlimit="10" d="M1209.759,419.598
			c0,0,4.11-12.74,10.274-18.493"/>
	</g>
	<g>
		<g>
			<g id="XMLID_6_">
				<g>
					<path fill="#E6ADC3" d="M1510.355,241.015c1.085,0.758,26.291,41.982-2.615,61.352c-43.171,15.923-71.793-12.796-71.793-12.796
						l-0.3-0.4c1.681-1.308,3.13-2.674,4.159-4.067c2.395-3.244,4.619-8.486,7.678-13.898c0,0,7.336,2.725,10.526,0.437
						c2.914-2.079,0.178-11.795-0.322-13.461c1.951-1.64,4.139-3.081,6.616-4.236c10.012-4.65,25.614-11.692,38.347-19.883
						l0.85,1.327c0,0,2.985,1.929,7.007,5.446L1510.355,241.015z"/>
					<path fill="#F4ECCA" d="M1435.947,289.571c0,0,28.621,28.719,71.793,12.796c5.837-2.148,11.944-5.112,18.275-9.076l0.143,0.086
						c-5.273,8.418-14.457,16.158-26.802,21.755c-18.242,8.27-40.785,9.23-57.958,8.32c-7.633-0.41-14.201-1.191-18.869-1.861
						c-15.185-2.181-38.323-6.258-46.555-21.741c-8.944-16.798,11.963-26.973,20.27-29.236c2.799-0.763,6.94-6.695,12.367-15.207
						c0.004-0.01,0.012-0.013,0.016-0.023c0.765-1.046,1.465-2.15,2.089-3.299c10.616-16.805,25.599-41.253,44.66-56.99
						c2.666-2.198,5.662-4.302,8.877-6.232c9.794-5.901,21.632-10.244,32.476-11.12c9.435-0.761,18.116,1.098,24.036,6.856
						c14.526,14.132,3.952,29.542-2.45,36.751c-0.193,0.21-0.371,0.414-0.552,0.611c-2.543,2.785-5.734,5.516-9.331,8.15
						c-1.834,1.343-3.768,2.667-5.775,3.953c-12.733,8.19-28.335,15.233-38.347,19.883c-2.477,1.154-4.665,2.596-6.616,4.236
						c-4.415,3.717-7.608,8.43-10.205,13.024c-3.059,5.412-5.284,10.653-7.678,13.898c-1.029,1.393-2.478,2.759-4.159,4.067
						L1435.947,289.571z"/>
					<path fill="#DF6895" d="M1526.014,293.291c-6.331,3.964-12.438,6.929-18.275,9.076c28.907-19.37,3.7-60.594,2.615-61.352
						l0.155-0.178c6.82,5.946,16.622,16.454,20.005,29.901c1.862,7.42,0.245,15.296-4.358,22.639L1526.014,293.291z"/>
					<path fill="#FFFFFF" d="M1517.759,221.961c0.181-0.197,0.36-0.401,0.552-0.611c0.802,3.067,2.954,12.212-0.053,12.556
						c-2.625,0.294-7.406-2.33-9.831-3.795C1512.025,227.478,1515.216,224.746,1517.759,221.961z"/>
					<path fill="#FFFFFF" d="M1496.64,176.615l0.086,1.128c-10.844,0.875-22.682,5.219-32.476,11.12l-0.282-0.482
						c-14.93-20.95,0.643-37.834,21.259-27.069l0.091-0.086C1489.276,165.719,1493.068,170.831,1496.64,176.615z M1475.831,176.021
						c-1.014-2.566-3.918-3.825-6.484-2.811c-2.566,1.014-3.818,3.915-2.804,6.481c1.014,2.566,3.908,3.821,6.474,2.807
						C1475.583,181.484,1476.845,178.587,1475.831,176.021z"/>
					<path fill="#E17E9F" d="M1297.027,254.088c-2.69,1.08-5.633,1.775-8.806,1.95c-18.016,0.977-31.033-11.262-34.321-27.344
						c-3.291-16.09,4.38-35.483,26.498-44.223c12.873-5.087,26.021-3.346,35.864,1.79l0.058-0.107c0,0,21.07-30.847,53.092-45.548
						c4.987-2.288,14.31-5.722,26.02-7.875c16.334-3.011,37.321-3.533,57.68,5.019c11.213,4.711,22.241,12.17,32.207,23.475
						l-0.091,0.086c-20.616-10.765-36.19,6.119-21.259,27.069l0.282,0.482c-3.215,1.931-6.211,4.034-8.877,6.232
						c-19.06,15.738-34.044,40.185-44.66,56.99c2.873-5.313,4.027-11.719,2.156-18.969c-3.582-13.928-22.267-27.252-39.346-19.993
						c-22.458,9.551-22.558,32.179-17.171,41.942c10.27,18.588,30.869,14.719,38.562,11.219c5.13-2.328,10.134-6.035,13.694-10.876
						c-5.427,8.512-9.568,14.444-12.367,15.207c-8.307,2.263-29.214,12.438-20.27,29.236c8.232,15.483,31.37,19.56,46.555,21.741
						c4.669,0.67,11.237,1.451,18.869,1.861c-13.536,3.853-72.197,17.882-116.533-14.145
						C1302.137,292.883,1297.262,255.909,1297.027,254.088z"/>
					<path fill="#371D10" d="M1469.347,173.21c2.566-1.014,5.47,0.245,6.484,2.811s-0.248,5.463-2.814,6.477
						c-2.566,1.014-5.46-0.241-6.474-2.807C1465.529,177.125,1466.781,174.224,1469.347,173.21z"/>
					<path fill="#E17E9F" d="M1427.801,114.977c21.19,1.855,25.337,22.713,25.337,22.713l-0.026,0.061
						c-20.36-8.551-41.346-8.03-57.68-5.019l-0.02-0.092C1395.412,132.639,1408.733,113.311,1427.801,114.977z"/>
					<path fill="#FFFFFF" d="M1457.689,258.183c0.5,1.666,3.236,11.382,0.322,13.461c-3.19,2.289-10.526-0.437-10.526-0.437
						C1450.081,266.612,1453.275,261.899,1457.689,258.183z"/>
					<path fill="#FFFFFF" d="M1373.523,213.122c17.079-7.259,35.765,6.066,39.346,19.993c1.87,7.25,0.716,13.656-2.156,18.969
						c-0.721,1.137-1.414,2.238-2.089,3.299c-0.004,0.01-0.012,0.013-0.016,0.023c-3.56,4.842-8.564,8.548-13.694,10.876
						c-7.693,3.499-28.292,7.369-38.562-11.219C1350.965,245.301,1351.066,222.673,1373.523,213.122z M1387.741,241.891
						c-1.214-3.072-4.683-4.576-7.755-3.362c-3.072,1.214-4.576,4.683-3.362,7.755c1.214,3.072,4.683,4.576,7.755,3.362
						S1388.955,244.963,1387.741,241.891z"/>
					<circle fill="#371D10" cx="1382.183" cy="244.088" r="5.977"/>
				</g>
				<g>
					
						<line fill="none" stroke="#371D10" stroke-width="4.3787" stroke-linecap="round" stroke-linejoin="round" stroke-miterlimit="10" x1="1473.886" y1="222.551" x2="1482.671" y2="223.425"/>
					
						<line fill="none" stroke="#371D10" stroke-width="4.3787" stroke-linecap="round" stroke-linejoin="round" stroke-miterlimit="10" x1="1503.578" y1="207.751" x2="1505.326" y2="201.177"/>
				</g>
			</g>
		</g>
		<path fill="none" stroke="#E6ADC3" stroke-width="4.3787" stroke-linecap="round" stroke-miterlimit="10" d="M1414.248,300.115
			c0,0,16.968-6.263,20.879-10.902c3.911-4.639,15.389-26.101,21.496-30.588c13.013-9.561,34.931-13.361,45.189-20.949"/>
		<path fill="none" stroke="#E84882" stroke-width="4.3787" stroke-linecap="round" stroke-miterlimit="10" d="M1283.89,212.051
			c0,0,28.165-1.408,29.299,19.354c0.758,13.885-13.913,24.057-25.441,25.077c-12.945,1.146-40.793-8.184-34.779-41.049
			s52.642-51.291,77.743-13.487"/>
		<path fill="none" stroke="#E84882" stroke-width="4.3787" stroke-linecap="round" stroke-miterlimit="10" d="M1300.927,270.562
			c0,0,4.377,31.511,28.923,42.537"/>
	</g>
</g>
<g id="XMLID_15_">
	<g>
		<path fill="#F0E0C3" d="M30.795,1.577c0,0,25.16,9.26,56.141,49.199c0.755,0.968,1.532,1.981,2.351,3.039c0,0,0,0,0.011,0.011
			c1.929,7.915,4.474,21.38-0.95,19.64c-7.647-2.451-32.069-37.68-32.069-37.68s1.32,36.212-2.711,40.492
			c-4.043,4.269-7.806-14.516-7.806-14.516s-5.346,16.935-7.898,19.795c-2.551,2.86,0.065-33.049,0.065-33.049l-4.191,7.688
			C35.83,32.228,27.349,17.1,27.349,17.1l12.981,5.885L30.795,1.577z"/>
		<path fill="#CC9E6F" d="M89.298,53.827c12.298,15.85,31.433,41.133,37.991,66.179c10.734,41.025-26.057,86.847-55.298,90.117
			c-38.411,4.298-69.304-22.813-69.208-61.1C2.9,109.241,23.074,103.081,31.23,70.82c1.304-5.179,2.103-10.069,2.507-14.623
			l4.191-7.688c0,0-2.616,35.909-0.065,33.049c2.551-2.86,7.898-19.795,7.898-19.795s3.764,18.785,7.806,14.516
			c4.032-4.28,2.711-40.492,2.711-40.492s24.422,35.229,32.069,37.68C93.773,75.207,91.227,61.742,89.298,53.827z"/>
	</g>
	<g>
	</g>
</g>
<g>
	<g>
		<g id="XMLID_14_">
			<g>
				<path fill="#CC9E6F" d="M-151.214,503.833l-0.642,0.266c0,0-24.915,9.819-38.398-1.425c-6.342-5.293-1.347-9.694-0.47-13.812
					c1.519-7.094-14.11-22.926-28.689-60.855c-6.562-17.069-6.405-86.052,11.385-102.417c17.774-16.365,129.43-24.179,140.095,5.685
					c10.664,29.879,2.85,86.772-12.09,123.041c-10.054,24.414-14.219,40.544-28.439,49.783c-5.966,3.884-34.64,9.459-41.249,2.13
					C-150.4,505.462-150.901,504.663-151.214,503.833z"/>
			</g>
			<g>
				
					<path fill="none" stroke="#CC9E6F" stroke-width="3.7888" stroke-linecap="round" stroke-linejoin="round" stroke-miterlimit="10" d="
					M-152.561,431.562c10.664,35.548,8.535,43.378,8.535,49.783c0,5.732-10.054,15.19-7.188,22.488
					c0.313,0.83,0.814,1.629,1.503,2.396c6.609,7.329,35.282,1.754,41.249-2.13c14.219-9.239,18.385-25.369,28.439-49.783
					c14.94-36.269,22.754-93.162,12.09-123.041c-10.664-29.864-122.321-22.049-140.095-5.685
					c-17.79,16.365-17.946,85.347-11.385,102.417c14.579,37.929,30.208,53.761,28.689,60.855c-0.877,4.119-5.873,8.519,0.47,13.812
					c13.483,11.244,38.398,1.425,38.398,1.425"/>
			</g>
		</g>
		<path fill="#CC9E6F" d="M-113.412,322.196c0,0,68.784,32.922,72.311,71.136c3.527,38.213-23.516,99.355-29.395,102.882
			c-5.879,3.527-35.107,13.794-44.092,7.055c-7.055-5.291-1.176-12.934,4.115-19.401c5.291-6.467,5.291-23.516,5.879-29.395
			c0.588-5.879-127.574-45.268-127.574-54.674C-232.168,390.392-250.393,293.977-113.412,322.196z"/>
		
			<path fill="none" stroke="#603918" stroke-width="3.132" stroke-linecap="round" stroke-linejoin="round" stroke-miterlimit="10" d="
			M-159.562,441.245c0,0,8.231,37.038,8.231,42.329s-2.352,8.231-1.176,15.873"/>
		
			<path fill="none" stroke="#603918" stroke-width="3.132" stroke-linecap="round" stroke-linejoin="round" stroke-miterlimit="10" d="
			M-123.407,500.329c0,0-0.882,3.527-0.588,7.055"/>
		
			<path fill="none" stroke="#603918" stroke-width="3.132" stroke-linecap="round" stroke-linejoin="round" stroke-miterlimit="10" d="
			M-138.815,499.404c0,0-1.641,4.452-0.61,8.292"/>
		
			<path fill="none" stroke="#603918" stroke-width="3.132" stroke-linecap="round" stroke-linejoin="round" stroke-miterlimit="10" d="
			M-166.323,497.389c0,0-1.764,4.703,1.176,7.937"/>
		
			<path fill="none" stroke="#603918" stroke-width="3.132" stroke-linecap="round" stroke-linejoin="round" stroke-miterlimit="10" d="
			M-181.609,495.919c0,0-1.47,4.997,1.47,9.112"/>
		
			<path fill="none" stroke="#603918" stroke-width="3.132" stroke-linecap="round" stroke-linejoin="round" stroke-miterlimit="10" d="
			M-100.773,495.332c0,0,12.934-42.035,12.052-62.317"/>
	</g>
	<g>
		<path fill="#F0E0C3" d="M-268.911,363.642c-0.679-9.507-0.236-17.584,5.585-25.574c2.013-2.764-10.078,0.489-7.643-2.352
			c24.692-28.807,68.816-34.238,115.816-36.45c38.329-1.804,105.234,8.818,125.222,50.559c1.778,3.713-12.644-3.6-10.582-0.588
			c3.806,5.56,3.558,17.021,2.939,23.516c-1.323,13.889-10.179,22.08-11.758,24.692c-1.806,2.987-2.992-9.718-5.291-7.055
			c-7.088,8.211-18.854,17.882-28.88,23.516c-2.079,1.168,2.257-6.131,0.12-5.053c-15.039,7.58-31.218,12.987-44.433,17.399
			c-12.778,4.266-19.527,1.611-22.928,0.882c-4.496-0.963-15.433-1.306-36.156-5.291c-12.709-2.444-35.715-8.682-54.148-20.064
			c-1.821-1.124,0.75,5.858-0.968,4.632c-5.092-3.636-14.012-15.881-17.694-20.457c-1.564-1.944,0.002,7.184-1.486,5.245
			C-268.47,381.72-268.489,369.554-268.911,363.642z"/>
		<path fill="#F0E0C3" d="M-159.137,319.552c32.785,1.395,71.898,24.573,70.988,50.056c-0.683,19.112-13.646,33.492-23.435,48.463
			c-3.868,5.916-13.652,17.292-16.382,18.43c-1.992,0.83,1.916-7.625-0.455-6.143c-20.022,12.514-21.843,29.123-26.166,29.351
			c-2.503-0.228-10.921-25.483-35.494-39.135c-9.001-5.001-34.584-21.843-39.135-44.595
			C-233.765,353.226-201.912,317.732-159.137,319.552z"/>
		
			<path fill="none" stroke="#CC9E6F" stroke-width="3.132" stroke-linecap="round" stroke-linejoin="round" stroke-miterlimit="10" d="
			M-227.465,371.873c0,0-1.176,4.115,1.176,12.346s4.703,11.17,4.703,11.17l1.764-8.818c0,0,13.522,18.813,28.807,27.631"/>
		
			<path fill="none" stroke="#CC9E6F" stroke-width="3.132" stroke-linecap="round" stroke-linejoin="round" stroke-miterlimit="10" d="
			M-91.66,352.178c0,0,9.406,7.055,10.582,22.928c0.565,7.622-1.764,15.873-1.764,15.873l-6.467-6.467
			c0,0-2.939,10.582-8.818,18.225c-3.305,4.296-9.406,8.818-9.406,8.818"/>
	</g>
</g>
<g id="XMLID_13_">
	<g>
		<path fill="#CC9E6F" d="M-699.078,109.466c-0.911,7.716,15.009,44.548,15.525,45.699c0.153-0.823,2.649-15.499,5.211-14.888
			c2.877,0.685,6.365,16.131,6.365,16.131s5.74-14.452,7.717-14.25c2.815,0.313,5.372,12.494,5.511,13.171
			c0.42-1.162,13.825-38.353,12.631-47.552c-1.191-9.364-21.55-79.669-26.939-80.661
			C-678.447,26.151-697.106,92.675-699.078,109.466z M-672.543-0.295c10.746-1.551,38.65,80.503,36.491,109.095
			c-1.232,16.24-14.598,73.905-23.997,86.803c-3.302,4.507-11.621,11.826-20.553,2.143c-8.959-9.684-30.195-77.873-28.112-94.799
			C-706.292,83.345-690.021,2.234-672.543-0.295z"/>
		<path fill="#603918" d="M-683.553,155.165c-0.516-1.151-16.436-37.984-15.525-45.699c1.971-16.79,20.631-83.315,26.02-82.35
			c5.389,0.993,25.748,71.298,26.939,80.661c1.194,9.199-12.211,46.39-12.631,47.552c-0.139-0.677-2.696-12.858-5.511-13.171
			c-1.978-0.201-7.717,14.25-7.717,14.25s-3.488-15.445-6.365-16.131C-680.904,139.667-683.4,154.342-683.553,155.165z"/>
	</g>
	<g>
	</g>
</g>
<g id="XMLID_12_">
	<g>
		<path fill="#CC9E6F" d="M-818.409,123.154c-1.267-9.337-20.727-86.656-26.117-87.578c-5.392-0.949-24.965,72.866-26.837,89.667
			c-0.867,7.732,15.37,44.447,15.878,45.592c0.133-0.729,2.529-15.53,5.105-14.928c2.871,0.674,6.488,16.083,6.488,16.083
			s5.624-14.487,7.585-14.304c2.837,0.263,5.455,12.428,5.609,13.119C-830.27,169.64-817.154,132.354-818.409,123.154z
			 M-832.981,202.714c-3.331,4.471-11.748,11.693-20.576,1.89c-8.828-9.804-29.239-78.238-26.933-95.13
			c2.665-19.571,19.913-100.483,37.419-102.782c10.745-1.424,37.648,80.954,35.145,109.511
			C-809.348,132.442-823.421,189.931-832.981,202.714z"/>
		<path fill="#603918" d="M-871.364,125.243c1.872-16.8,21.445-90.616,26.837-89.667c5.39,0.922,24.85,78.241,26.117,87.578
			c1.255,9.199-11.861,46.485-12.289,47.653c-0.154-0.691-2.772-12.856-5.609-13.119c-1.961-0.183-7.585,14.304-7.585,14.304
			s-3.617-15.409-6.488-16.083c-2.576-0.602-4.971,14.199-5.105,14.928C-855.994,169.691-872.231,132.975-871.364,125.243z"/>
	</g>
	<g>
	</g>
</g>
<g>
	<path fill="#CC9E6F" d="M-390.686,48.68c0,0-19.962-20.605-22.111-19.377c-2.149,1.228-0.909,15.387-0.909,15.387
		s-15.961-17.802-18.109-17.188s-0.614,18.109-0.614,18.109s-24.65-23.977-27.106-23.363c-2.455,0.614-2.646,18.96-2.646,18.96
		s-11.079-12.212-13.228-11.905s-1.764,17.637-1.764,17.637s-15.795-14.149-17.637-13.228c-1.842,0.921-3.527,17.637-3.527,17.637
		s-18.413,5.078-27.554,22.346c-20.718,39.134-5.669,68.006-10.589,87.016c-3.093,11.952-4.216,23.468,2.763,31.307
		c19.894,22.347,57.104,31.886,87.936,30.847c40.976-1.381,75.659-16.421,85.481-44.659c2.959-8.507,3.647-22.996,1.842-33.149
		c-3.794-21.344,1.228-52.179-12.277-71.209C-379.077,62.094-390.686,48.68-390.686,48.68z"/>
	<g id="XMLID_3_">
		<g>
			<path fill="#603918" d="M-490.041,164.058v0.017c-2.059,8.145-6.347,12.743-12.92,12.743c-6.158,0-10.767-4.029-13.411-10.866
				c1.247-2.6,3.702-6.94,7.046-9.454c0.642,5.045,3.041,8.765,5.893,8.765c2.871,0,5.27-3.754,5.912-8.817
				C-493.611,158.771-490.985,162.56-490.041,164.058z"/>
			<path fill="#331704" d="M-497.332,153.708c0,0.947-0.057,1.86-0.189,2.738c-1.738-1.05-3.74-1.808-5.969-1.929
				c-2.153-0.121-4.118,0.689-5.837,1.98c-0.132-0.895-0.189-1.825-0.189-2.79c0-4.374,1.284-8.197,3.173-10.143
				c0.869-0.895,1.851-1.395,2.909-1.395C-500.071,142.171-497.332,147.337-497.332,153.708z"/>
			<path fill="#331704" d="M-497.521,156.446c-0.642,5.063-3.041,8.817-5.912,8.817c-2.852,0-5.251-3.72-5.893-8.765
				c1.719-1.292,3.683-2.101,5.837-1.98C-501.261,154.638-499.259,155.396-497.521,156.446z"/>
			<path fill="#331704" d="M-503.433,142.171c-1.058,0-2.04,0.499-2.909,1.395l-1.398-1.326c2.059,0,3.74-3.22,3.74-7.181
				c0-3.978-1.681-7.198-3.74-7.198c-0.888,0-1.719,0.62-2.38,1.636l-3.154-0.654c2.928-4.322,6.536-6.802,9.785-6.802
				c8.5,0,14.885,12.261,14.885,28.602c0,5.149-0.472,9.66-1.436,13.414c-0.944-1.498-3.57-5.287-7.48-7.611
				c0.132-0.878,0.189-1.791,0.189-2.738C-497.332,147.337-500.071,142.171-503.433,142.171z"/>
			<path fill="#FFFFFF" d="M-507.74,127.861c2.059,0,3.74,3.22,3.74,7.198c0,3.961-1.681,7.181-3.74,7.181
				c-2.059,0-3.74-3.22-3.74-7.181c0-2.239,0.529-4.236,1.36-5.562C-509.459,128.481-508.628,127.861-507.74,127.861z"/>
			<path fill="#331704" d="M-507.74,142.24l1.398,1.326c-1.889,1.946-3.173,5.769-3.173,10.143c0,0.964,0.057,1.894,0.189,2.79
				c-3.343,2.514-5.799,6.854-7.046,9.454c-1.7-4.374-2.607-9.919-2.607-16.29c0-8.679,2.418-15.929,5.705-20.819l3.154,0.654
				c-0.831,1.326-1.36,3.323-1.36,5.562C-511.48,139.02-509.799,142.24-507.74,142.24z"/>
		</g>
		<g>
		</g>
	</g>
	<ellipse fill="#603918" cx="-450.385" cy="182.81" rx="5.064" ry="2.302"/>
	
		<path fill="none" stroke="#603918" stroke-width="3.2704" stroke-linecap="round" stroke-linejoin="round" stroke-miterlimit="10" d="
		M-472.897,191.097c0,0,6.81,4.384,11.106,4.384c6.86,0,8.6-1.162,11.866-1.162c3.267,0,7.539,2.316,12.431,2.762
		c5.553,0.507,16.527-4.644,16.527-4.644"/>
	<g id="XMLID_1_">
		<g>
			<path fill="#603918" d="M-384.595,164.328c-2.078,8.128-6.385,12.726-12.939,12.726c-6.158,0-10.767-4.029-13.411-10.883
				c1.247-2.6,3.702-6.922,7.046-9.437c0.642,5.028,3.041,8.748,5.893,8.748c2.871,0,5.27-3.754,5.912-8.799
				C-388.146,159.024-385.52,162.864-384.595,164.328z"/>
			<path fill="#331704" d="M-391.905,153.944c0,0.947-0.057,1.86-0.189,2.738c-1.757-1.05-3.74-1.808-5.969-1.929
				c-2.153-0.121-4.118,0.689-5.837,1.98c-0.132-0.895-0.189-1.825-0.189-2.79c0-4.374,1.284-8.197,3.192-10.143
				c0.85-0.895,1.832-1.395,2.89-1.395C-394.625,142.407-391.905,147.573-391.905,153.944z"/>
			<path fill="#331704" d="M-392.094,156.682c-0.642,5.045-3.041,8.799-5.912,8.799c-2.852,0-5.251-3.72-5.893-8.748
				c1.719-1.292,3.683-2.101,5.837-1.98C-395.834,154.874-393.85,155.632-392.094,156.682z"/>
			<path fill="#331704" d="M-398.006,142.407c-1.058,0-2.04,0.499-2.89,1.395l-1.417-1.326c2.059,0,3.74-3.22,3.74-7.198
				c0-3.978-1.681-7.198-3.74-7.198c-0.907,0-1.738,0.62-2.38,1.636l-3.154-0.654c2.928-4.322,6.536-6.802,9.785-6.802
				c8.519,0,14.904,12.278,14.904,28.62c0,5.166-0.472,9.695-1.436,13.449c-0.926-1.464-3.551-5.304-7.499-7.646
				c0.132-0.878,0.189-1.791,0.189-2.738C-391.905,147.573-394.625,142.407-398.006,142.407z"/>
			<path fill="#FFFFFF" d="M-402.313,128.08c2.059,0,3.74,3.22,3.74,7.198c0,3.978-1.681,7.198-3.74,7.198
				c-2.059,0-3.74-3.22-3.74-7.198c0-2.239,0.529-4.236,1.36-5.562C-404.05,128.7-403.219,128.08-402.313,128.08z"/>
			<path fill="#331704" d="M-402.313,142.476l1.417,1.326c-1.908,1.946-3.192,5.769-3.192,10.143c0,0.964,0.057,1.894,0.189,2.79
				c-3.343,2.514-5.799,6.836-7.046,9.437c-1.719-4.374-2.607-9.902-2.607-16.273c0-8.679,2.418-15.946,5.704-20.836l3.154,0.654
				c-0.831,1.326-1.36,3.323-1.36,5.562C-406.053,139.256-404.371,142.476-402.313,142.476z"/>
		</g>
		<g>
		</g>
	</g>
	
		<line fill="none" stroke="#603918" stroke-width="3.2704" stroke-linecap="round" stroke-linejoin="round" stroke-miterlimit="10" x1="-414.474" y1="128.022" x2="-408.949" y2="120.656"/>
	
		<line fill="none" stroke="#603918" stroke-width="3.2704" stroke-linecap="round" stroke-linejoin="round" stroke-miterlimit="10" x1="-491.361" y1="122.497" x2="-486.296" y2="129.403"/>
</g>
<path fill="none" stroke="#E6ADC3" stroke-width="4.3787" stroke-linecap="round" stroke-miterlimit="10" d="M1489.695,424.027
	c0,0,14.948-11.863,18.039-9.01s1.776,9.779-13.441,36.884"/>
<g>
	<path fill="none" d="M2511.915-862.973c-17.6,0-32.143,13.079-34.563,30.031h1.716v9.559h-1.76
		c2.266,17.116,16.885,30.405,34.607,30.405s32.341-13.277,34.596-30.405h-0.968v-9.559h0.924
		C2544.047-849.894,2529.515-862.973,2511.915-862.973z M2511.915-800.591c-15.125,0-27.391-12.265-27.391-27.391
		c0-15.125,12.265-27.391,27.391-27.391s27.391,12.265,27.391,27.391C2539.306-812.856,2527.04-800.591,2511.915-800.591z"/>
	<path fill="#FFE6B4" d="M2511.915-862.973c17.601,0,32.132,13.079,34.552,30.031h42.681c-2.475-40.613-36.246-72.888-77.464-72.888
		s-74.989,32.286-77.475,72.888h43.132C2479.772-849.894,2494.314-862.973,2511.915-862.973z"/>
	<path fill="#FFE6B4" d="M2511.915-792.99c-17.732,0-32.352-13.277-34.607-30.405h-43.099c2.486,40.591,36.257,72.888,77.475,72.888
		s74.989-32.286,77.475-72.888h-42.637C2544.256-806.267,2529.647-792.99,2511.915-792.99z"/>
	<circle fill="#FFE6B4" cx="2511.915" cy="-827.981" r="26.379"/>
</g>
</svg>
