<?xml version="1.0" encoding="utf-8"?>
<!-- Generator: Adobe Illustrator 24.2.1, SVG Export Plug-In . SVG Version: 6.00 Build 0)  -->
<svg version="1.1" id="Layer_1" xmlns="http://www.w3.org/2000/svg" xmlns:xlink="http://www.w3.org/1999/xlink" x="0px" y="0px"
	 width="562.426px" height="523.603px" viewBox="0 0 562.426 523.603" enable-background="new 0 0 562.426 523.603"
	 xml:space="preserve">
<g>
	<g id="XMLID_2_">
		<g>
			<path fill="#C6D7EA" d="M464.329,77.724c-4.9-6.316-8.224-12.802-8.296-18.374c-0.036-2.741,0.735-5.536,2.105-8.278
				c6.782-13.617,28.228-26.132,38.271-26.714c18.105-1.039,49.344,30.486,56.269,48.242c4.067,10.428-2.302,37.33-2.392,42.096
				c-0.09,4.757,23.875,40.618,4.703,84.613c-14.477,33.227-59.816,50.526-59.816,50.526l-1.245,0.215
				c-4.56-7.633-8.842-12.327-8.842-12.327s6.504-30.979-9.12-52.873c-1.075-9.845-0.358-19.494,1.353-28.497
				c5.581-29.33,21.841-51.789,21.841-51.789C490.354,102.36,474.166,90.41,464.329,77.724z"/>
			<path fill="#C6D7EA" d="M365.409,338.427c-8.761-1.254-14.262-2.329-14.262-2.329s-17.586,7.964-35.064,11.682
				c-2.195,0.475-4.39,0.869-6.549,1.183c-5.689,0.815-21.187,2.356-32.233,1.595c-2.374-0.161-4.542-0.43-6.361-0.833
				c-2.275-0.511-6.155-8.564-3.789-10.598c5.303-4.542,31.256-6.602,30.271-9.836c-5.294-17.406-36.757,3.861-49.182-4.542
				c-2.956-1.998-5.438-4.04-7.516-6.083c-13.169-12.954-9.908-26.007-5.348-28.721c3.377-2.025,8.134-4.399,13.644-6.719
				c14.862-6.28,35.243-12.202,49.164-9.935c19.082,3.118,50.696,15.892,50.696,15.892s12.614-18.329,40.528-26.732
				c20.775-6.262,43.718-1.684,43.718-1.684s29.599-19.503,64.242-4.372h0.009c4.811,9.774,8.735,22.468,6.629,35.816
				c-4.542,28.757-30.154,40.027-48.43,45.402C428.146,345.683,386.945,341.509,365.409,338.427z"/>
			<path fill="#C6D7EA" d="M476.764,156.255l0.555,0.099c-1.711,9.003-2.428,18.652-1.353,28.497
				c-1.532-2.15-3.27-4.211-5.259-6.146c-8.412-8.206-18.374-12.13-28.381-13.527l-0.116-0.6c0,0,4.757-15.176,22.396-17.209
				C468.629,149.455,472.723,152.34,476.764,156.255z"/>
			<path fill="#C6D7EA" d="M464.329,77.724c-0.484,1.057-2.473,4.004-9.093,2.069c-7.991-2.338-12.515-11.35-8.529-21.483
				c3.996-10.132,11.368-7.274,11.368-7.274l0.063,0.036c-1.371,2.741-2.141,5.536-2.105,8.278
				C456.105,64.923,459.429,71.409,464.329,77.724z"/>
			<path fill="#C6D7EA" d="M420.352,501.231c1.496,2.732,1.72,8.278-4.372,10.428c-5.725,2.016-11.772-2.356-11.772-2.356
				s0.672,5.465-2.356,7.731c-3.028,2.275-6.181,3.978-15.471-0.672c-8.744-4.372-12.56-9.944-19.171-16.143
				c-3.279-3.073-6.172-3.825-7.4-7.059c-2.428-6.405,3.879-9.783,4.04-15.131c0.17-5.644-9.075-6.155-16.484-20.184
				c-6.387-12.103-3.359-24.215-4.703-27.915c-1.344-3.682-31.677-16.107-32.896-38.647c9.012-4.802,15.453-13.232,28.228-19.924
				c10.598-5.554,23.883-9.926,28.085-11.27c0.52-0.17,0.815-0.457,0.941-0.86c2.195,1.236,17.272,9.854,24.743,18.571
				c14.576,17.012,10.419,38.002,10.419,38.002s9.406,12.237,9.084,24.215c-0.761,28.004-13.957,33.72-14.244,37.787
				c-0.34,4.703,1.684,8.403,8.86,14.343C410.014,495.56,418.838,498.489,420.352,501.231z"/>
			<path fill="#222323" d="M280.984,392.984c-11.1-3.87-19.028-12.202-34.795-17.595c-11.422-3.897-24.726-4.533-31.785-5.545
				c2.356-7.059,0-10.428,0-10.428l0.063-0.385c6.119,1.021,11.852,1.828,15.615,2.043c12.327,0.681,25.926-2.786,35.341-5.895
				l0.439,1.317c1.666,2.06,9.55,10.562,25.218,9.819c21.823-1.03,24.797-17.254,25.003-18.535
				c17.478-3.718,35.064-11.682,35.064-11.682s5.501,1.075,14.262,2.329c-3.987,10.661,2.41,18.168,1.613,20.802
				c-0.125,0.403-0.421,0.69-0.941,0.86c-4.202,1.344-17.487,5.716-28.085,11.27c-12.775,6.692-19.216,15.122-28.228,19.924
				c-4.632,2.464-9.953,3.969-17.174,3.789C288.195,394.964,284.433,394.194,280.984,392.984z"/>
			<path fill="#FBF2C4" d="M348.943,97.827c1.46-0.761,2.777-0.959,3.825-0.215c3.324,2.347,0.502,22.262-5.778,33.98
				c-1.81,3.368-3.897,6.065-6.217,7.462c-5.205,3.144-11.933,6.137-19.216,8.699c-11.807,4.166-25.066,7.212-35.574,8.009
				c-2.24,0.17-4.345,0.242-6.289,0.197c-0.77-0.018-1.657-0.063-2.652-0.143c-8.233-0.627-23.821-3.234-37.635-6.817
				c-11.35-2.929-21.509-6.522-25.424-10.213c-2.132-2.007-4.327-4.909-6.334-8.251c-6.477-10.741-11.073-25.971-5.689-30.083
				c0.869-0.663,1.756-0.887,2.652-0.779c5.635,0.672,11.7,14.495,17.828,14.029c0.538-0.045,1.084-0.072,1.639-0.099
				c9.845-0.502,20.864,1.236,30.71,3.207c1.702,0.34,3.368,0.69,4.981,1.039c5.59,1.191,10.616,2.356,14.593,3.055
				c2.231,0.403,4.121,0.654,5.608,0.699c1.299,0.036,2.607-0.018,3.924-0.152c0.009,0.027,0.009,0.054,0.009,0.081
				c0,0,0.018-0.027,0.045-0.09c4.237-0.412,8.618-1.621,13.339-3.118c1.595-0.502,3.225-1.039,4.9-1.586
				c3.028-0.994,6.208-2.034,9.586-3.01c6.119-1.756,12.882-3.306,20.578-3.969c0.618-0.063,1.236-0.107,1.872-0.152
				C337.423,109.393,343.998,100.389,348.943,97.827z"/>
			<path fill="#A29D87" d="M317.723,81.03c-3.216,5.966-6.325,11.655-9.093,16.708c-2.938,5.339-5.51,9.98-7.462,13.474
				c-2.446,4.381-3.915,6.988-3.915,6.988l0.036,0.125c-4.721,1.496-9.102,2.705-13.339,3.118
				c1.245-2.293,25.989-48.107,41.872-73.066c10.732-18.616,19.915-33.138,21.769-31.749c2.007,1.505-6.02,18.714-16.224,38.558
				C327.013,63.659,322.265,72.618,317.723,81.03z"/>
			<path fill="#C6D7EA" d="M331.367,55.185c13.85,19.073,17.389,41.406,17.577,42.643c-4.945,2.562-11.521,11.565-14.719,11.78
				c-0.636,0.045-1.254,0.09-1.872,0.152l-0.036-0.421c0,0,0.546-22.513-14.593-28.309
				C322.265,72.618,327.013,63.659,331.367,55.185z"/>
			<path fill="#FFFFFF" d="M332.316,109.339l0.036,0.421c-7.695,0.663-14.459,2.213-20.578,3.969l-0.26-0.896
				c1.577-0.412,2.813-3.834,2.813-8c0-4.434-1.406-8.036-3.135-8.036c-0.654,0-1.254,0.511-1.756,1.38l-0.806-0.439
				c2.768-5.053,5.877-10.741,9.093-16.708C332.863,86.826,332.316,109.339,332.316,109.339z"/>
			<path fill="#FFFFFF" d="M321.557,147.753l0.045,0.125c0,0-0.502,2.15-1.398,5.85l-2.49,0.287c0,0-10.231,18.58-16.287,17.066
				c-1.532-0.385-3.718-2.123-5.966-4.291c-4.605-4.434-9.451-10.661-9.451-10.661l-0.027-0.367
				C296.491,154.965,309.75,151.919,321.557,147.753z"/>
			<path fill="#FFFFFF" d="M317.714,154.015l2.49-0.287c-3.198,13.214-11.413,46.137-19.772,71.238l-0.09-0.027
				c-2.213-22.083-9.308-46.575-10.177-49.523c2.929-2.526,4.954-8.116,4.954-8.116l0.34-0.511c2.249,2.168,4.434,3.906,5.966,4.291
				C307.483,172.595,317.714,154.015,317.714,154.015z"/>
			<path fill="#C58E8A" d="M311.192,96.797c1.729,0,3.135,3.601,3.135,8.036c0,4.166-1.236,7.588-2.813,8
				c-0.108,0.027-0.215,0.045-0.323,0.045c-1.738,0-3.135-3.601-3.135-8.045c0-2.768,0.546-5.214,1.38-6.656
				C309.938,97.308,310.538,96.797,311.192,96.797z"/>
			<path fill="#FBF2C4" d="M316.083,347.78c-0.206,1.281-3.18,17.505-25.003,18.535c-15.668,0.744-23.552-7.758-25.218-9.819
				l-0.439-1.317c7.131-2.356,11.87-4.506,11.87-4.506l0.009-0.116c11.046,0.761,26.544-0.779,32.233-1.595
				C311.694,348.649,313.888,348.254,316.083,347.78z"/>
			<path fill="#FFFFFF" d="M311.514,112.833l0.26,0.896c-3.377,0.976-6.558,2.016-9.586,3.01l-0.134-0.52
				c-0.815-0.815-0.815-4.972-0.815-4.972l-0.072-0.036c1.953-3.494,4.524-8.134,7.462-13.474l0.806,0.439
				c-0.833,1.442-1.38,3.888-1.38,6.656c0,4.443,1.398,8.045,3.135,8.045C311.299,112.878,311.407,112.86,311.514,112.833z"/>
			<path fill="#C6D7EA" d="M281.288,28.282c19.306,1.039,34.696,9.406,44.533,20.094c-15.884,24.959-40.627,70.773-41.872,73.066
				c-0.018,0.009-0.036,0.009-0.054,0.009C283.367,78.342,282.39,47.901,281.288,28.282z"/>
			<path fill="#C6D7EA" d="M302.054,116.219l0.134,0.52c-1.675,0.546-3.306,1.084-4.9,1.586l-0.036-0.125
				c0,0,1.469-2.607,3.915-6.988l0.072,0.036C301.239,111.247,301.239,115.404,302.054,116.219z"/>
			<path fill="#222323" d="M266.354,226.911c-10.23-24.994-21.034-58.687-25.189-72.009c-1.147-3.646-1.792-5.769-1.792-5.769
				l0.036-0.134c-11.35-2.93-21.509-6.522-25.424-10.213c-2.132-2.007-4.327-4.909-6.334-8.251l-0.305,0.188
				c0,0-27.799-4.488-52.184,10.141c-2.428,1.461-4.793,3.216-6.952,5.035l0.394,0.52c0,0,14.594,12.936,9.55,35.126l-0.735,0.036
				c-2.239-0.591-14.7-3.323-31.014,3.933c-31.059,13.814-40.86,59.028-40.86,59.028s-5.868,3.79-11.879,11.521
				c-1.532,1.98-3.082,4.22-4.542,6.728l0.278,0.161c0,0,19.091-12.255,39.427-4.022c14.925,6.038,28.533,17.433,28.533,17.433
				s13.384-2.975,33.281,5.545c11.091,4.757,22.361,14.083,22.361,14.083s31.74-15.435,55.955-12.918l0.063,0.152
				c14.862-6.28,35.242-12.202,49.164-9.935c19.081,3.117,50.696,15.892,50.696,15.892s12.613-18.329,40.528-26.732
				c20.775-6.262,43.718-1.684,43.718-1.684s29.599-19.503,64.242-4.372h0.009c-1.129-2.285-2.293-4.408-3.449-6.343
				c-4.56-7.633-8.842-12.327-8.842-12.327s6.504-30.978-9.12-52.873c-1.532-2.15-3.27-4.211-5.259-6.146
				c-8.412-8.206-18.374-12.129-28.381-13.527l-0.116-0.6c0,0,4.757-15.175,22.396-17.209c-20.076-10.437-38.459-1.12-40.555-1.962
				c-2.527-1.003-3.001-3.924-17.156-12.103c-21.527-12.443-59.861-1.684-59.861-1.684l-0.045-0.027
				c-1.809,3.368-3.897,6.064-6.217,7.462c-5.205,3.145-11.933,6.137-19.216,8.699l0.045,0.125c0,0-0.502,2.15-1.398,5.85
				c-3.199,13.213-11.414,46.136-19.772,71.238"/>
			<path fill="#C6D7EA" d="M240.724,318.664c2.078,2.043,4.56,4.085,7.516,6.083c12.426,8.403,43.888-12.864,49.182,4.542
				c0.985,3.234-24.967,5.294-30.271,9.836c-2.365,2.034,1.514,10.087,3.789,10.598c1.819,0.403,3.987,0.672,6.361,0.833
				l-0.009,0.116c0,0-4.739,2.15-11.87,4.506c-9.415,3.109-23.015,6.576-35.341,5.895c-3.763-0.215-9.496-1.021-15.615-2.043
				c-13.572-2.258-29.035-5.527-29.035-5.527s-94.593,24.215-116.533-25.729c-13.088-29.787-7.749-51.297,0.224-64.985l0.278,0.161
				c0,0,19.091-12.255,39.427-4.022c14.925,6.038,28.533,17.433,28.533,17.433s13.384-2.974,33.281,5.545
				c11.091,4.757,22.361,14.083,22.361,14.083s31.74-15.436,55.955-12.918l0.063,0.152c-5.51,2.32-10.266,4.694-13.644,6.719
				C230.816,292.658,227.555,305.71,240.724,318.664z"/>
			<g>
				<path fill="none" d="M289.575,175.874c-2.809,1.93-9.868,1.974-13.601,0.678C279.707,177.848,286.766,177.805,289.575,175.874z"
					/>
				<path fill="#222323" d="M301.219,228.06c-2.213-22.083-10.184-49.695-11.053-52.643c2.93-2.526,4.954-8.116,4.955-8.116
					l0.34-0.511c-4.604-4.435-9.451-10.661-9.451-10.661l-0.027-0.367c-2.24,0.17-4.345,0.242-6.289,0.197
					c-0.771-0.018-1.658-0.062-2.652-0.143l-0.009,0.314c0,0-4.605,7.597-8.099,11.87l0.457,0.054c0,0,3.682,6.602,4.793,7.57
					c0.233,0.197,0.52,0.385,0.851,0.546l0,0c-0.457,2.024-7.815,37.855-8.917,54.33"/>
			</g>
			<path fill="#FBF2C4" d="M283.895,121.451c0.018,0,0.036,0,0.054-0.009c-0.027,0.063-0.045,0.09-0.045,0.09
				C283.904,121.505,283.904,121.478,283.895,121.451z"/>
			<path fill="#A29D87" d="M281.288,28.282c1.102,19.619,2.078,50.06,2.607,93.169c-1.317,0.134-2.625,0.188-3.924,0.152
				c-1.487-0.045-3.377-0.296-5.608-0.699l0.027-0.17c0,0-0.376-0.735-1.075-2.096c-0.278-24.188,0.555-63.4,1.837-90.069
				C275.949,11.807,276.925,0,277.92,0C278.968,0,280.195,8.824,281.288,28.282z"/>
			<path fill="#FFFFFF" d="M242.999,154.329l-1.837,0.573c-1.147-3.646-1.792-5.769-1.792-5.769l0.036-0.134
				c13.814,3.583,29.402,6.19,37.635,6.817l-0.009,0.314c0,0-4.605,7.597-8.099,11.87c-1.415,1.729-2.652,2.92-3.324,2.831
				C258.113,169.854,243.877,155.243,242.999,154.329z"/>
			<path fill="#C6D7EA" d="M275.152,28.569c-1.281,26.67-2.114,65.881-1.837,90.069c-4.694-9.111-23.758-46.11-38.154-74.105
				C244.782,36.022,257.091,29.68,275.152,28.569z"/>
			<path fill="#FFFFFF" d="M274.184,175.623c0.233,0.197,0.52,0.385,0.851,0.546c-0.457,2.025-7.579,34.266-8.681,50.741
				c-10.231-24.994-21.035-58.687-25.191-72.009l1.837-0.573c0.878,0.914,15.113,15.525,22.611,16.502
				c0.672,0.09,1.908-1.102,3.324-2.831l0.457,0.054C269.391,168.053,273.073,174.656,274.184,175.623z"/>
			<path fill="#A29D87" d="M256.518,110.513c-3.001-6.701-7.767-17.389-12.999-29.339c-4.461-10.159-9.254-21.223-13.608-31.516
				c-8.815-20.855-15.785-38.531-14.289-39.023c1.371-0.457,9.675,14.71,19.539,33.899c14.396,27.995,33.46,64.994,38.154,74.105
				c0.699,1.362,1.075,2.096,1.075,2.096l-0.027,0.17c-3.978-0.699-9.003-1.863-14.593-3.055l0.018-0.063
				C259.788,117.787,258.56,115.073,256.518,110.513z"/>
			<path fill="#C6D7EA" d="M196.343,506.292c-0.475,0.367-9.872,7.713-15.113,7.382c-5.384-0.34-10.768-2.016-8.072-8.744
				c1.442-3.619,6.092-3.171,13.115-6.728c7.015-3.548,20.184-11.028,22.074-13.68c2.159-3.01-8.744-2.688-15.131-17.487
				c-8.761-20.273,0.672-44.058,0.672-44.058s-4.712-17.819,1.012-30.934c6.208-14.262,19.171-22.199,19.171-22.199h0.331
				c7.059,1.012,20.363,1.648,31.785,5.545c15.767,5.393,23.695,13.724,34.795,17.595c-0.403,10.177-14.656,28.157-31.149,36.945
				c-2.526,1.353,1.774,14.907-1.344,24.215c-3.109,9.281-11.61,22.056-12.443,24.555c-2.267,6.809,5.545,10.007,4.031,19.843
				c-1.514,9.836-6.719,3.028-31.274,20.175c-13.536,9.46-18.159,3.028-17.827-1.344
				C191.309,513.137,196.048,506.695,196.343,506.292z"/>
			<path fill="#C6D7EA" d="M259.788,117.787l-0.018,0.063c-1.613-0.349-3.279-0.699-4.981-1.039l0.027-0.143
				c0,0,1.935-3.44,1.702-6.155C258.56,115.073,259.788,117.787,259.788,117.787z"/>
			<path fill="#FFFFFF" d="M256.518,110.513c0.233,2.714-1.702,6.155-1.702,6.155l-0.027,0.143
				c-9.845-1.971-20.864-3.709-30.71-3.207l-0.009-0.179c0,0,2.437-34.087,19.449-32.251
				C248.751,93.124,253.517,103.812,256.518,110.513z M248.473,105.791c0-4.443-1.398-8.045-3.135-8.045
				c-1.729,0-3.135,3.601-3.135,8.045c0,4.443,1.406,8.045,3.135,8.045C247.076,113.836,248.473,110.235,248.473,105.791z"/>
			<ellipse fill="#C58E8A" cx="245.338" cy="105.791" rx="3.135" ry="8.045"/>
			<path fill="#C6D7EA" d="M243.519,81.173c-17.012-1.837-19.449,32.251-19.449,32.251l0.009,0.179
				c-0.555,0.027-1.102,0.054-1.639,0.099c-6.128,0.466-12.193-13.357-17.828-14.029l0.036-0.224c0,0,4.578-27.637,25.263-49.792
				C234.265,59.951,239.058,71.014,243.519,81.173z"/>
			<path fill="#C6D7EA" d="M68.595,112.788l0.107,0.296c0,0,15.857,18.67,21.689,45.984l0.197-0.036
				c20.685-16.143,46.325-1.738,46.325-1.738s4.802-5.957,11.297-11.395l0.394,0.52c0,0,14.593,12.936,9.55,35.126l-0.735,0.036
				c-2.24-0.591-14.701-3.324-31.014,3.933c-31.059,13.814-40.86,59.028-40.86,59.028s-5.868,3.789-11.879,11.521l-0.224-0.17
				c0,0-41.111-2.625-66.983-46.692c-18.625-31.722,8.959-85.841,8.959-85.841S8.09,91.073,12.972,80.834
				s44.775-51.977,56.985-50.401c10.311,1.335,32.797,15.006,39.561,29.187c1.245,2.616,1.962,5.25,1.962,7.83
				c0,5.725-4.094,12.658-9.845,19.395C91.313,98.929,75.636,110.333,68.595,112.788z"/>
			<path fill="#C6D7EA" d="M122.794,63.382c6.128,9.227-2.356,26.428-9.953,27.825c-8.349,1.541-11.064-4.246-11.064-4.246
				l-0.143-0.116c5.751-6.737,9.845-13.671,9.845-19.395c0-2.58-0.717-5.214-1.962-7.83l0.331-0.152
				C109.849,59.467,117.902,56.036,122.794,63.382z"/>
		</g>
		<g>
			<path fill="#6D180C" d="M225.782,137.702c-0.272,0-0.541-0.124-0.717-0.358c-0.297-0.396-0.217-0.958,0.179-1.254
				c7.787-5.843,45.181-6.156,49.818-5.064c1.602,0.381,2.992,1.423,4.109,2.261c0.738,0.553,1.574,1.179,1.983,1.192
				c0.488,0.016,1.8-0.904,2.856-1.644c1.753-1.228,3.935-2.756,6.199-3.245c6.706-1.434,36.128-1.113,43.706,3.093
				c0.433,0.24,0.589,0.786,0.349,1.218s-0.784,0.59-1.218,0.349c-7.12-3.952-36.093-4.269-42.46-2.908
				c-1.909,0.412-3.927,1.826-5.548,2.961c-1.601,1.122-2.881,2.009-3.945,1.967c-0.971-0.03-1.91-0.733-2.998-1.548
				c-1.036-0.776-2.21-1.657-3.448-1.951c-5.414-1.275-41.414-0.434-48.33,4.754C226.158,137.643,225.969,137.702,225.782,137.702z"
				/>
			<path fill="#36434C" d="M232.349,305.219c-0.315,0-0.62-0.167-0.784-0.461c-0.24-0.433-0.084-0.979,0.348-1.219
				c1.679-0.934,41.352-22.824,60.356-19.784c0.488,0.078,0.821,0.538,0.743,1.026s-0.539,0.825-1.026,0.743
				c-18.408-2.952-58.797,19.355-59.203,19.581C232.646,305.182,232.496,305.219,232.349,305.219z"/>
			<path fill="#36434C" d="M240.67,319.587c-0.332,0-0.651-0.186-0.806-0.505c-0.216-0.444-0.031-0.98,0.414-1.197l0.054-0.026
				c1.382-0.807,35.461-20.444,57.272-15.929c0.484,0.1,0.796,0.574,0.695,1.059c-0.1,0.484-0.572,0.796-1.059,0.695
				c-21.153-4.38-54.651,14.931-56.066,15.755c-0.019,0.011-0.093,0.048-0.113,0.058
				C240.936,319.558,240.802,319.587,240.67,319.587z"/>
			<path fill="#36434C" d="M461.489,70.647c-0.108,0-0.218-0.02-0.324-0.061c-0.461-0.179-0.689-0.697-0.511-1.158
				c0.053-0.137,5.476-13.689,20.824-15.642c0.506-0.064,0.939,0.285,1.002,0.775c0.062,0.491-0.285,0.939-0.775,1.002
				c-14.267,1.815-19.331,14.387-19.381,14.513C462.186,70.43,461.848,70.647,461.489,70.647z"/>
			<path fill="#36434C" d="M472.759,85.974c-0.098,0-0.196-0.016-0.294-0.05c-0.467-0.162-0.714-0.671-0.553-1.139
				c0.062-0.177,6.349-17.673,24.907-16.628c0.493,0.028,0.871,0.452,0.843,0.946c-0.028,0.495-0.447,0.872-0.946,0.843
				c-17.213-1.009-22.878,14.755-23.11,15.426C473.477,85.742,473.13,85.974,472.759,85.974z"/>
			<path fill="#36434C" d="M486.232,96.627c-0.149,0-0.301-0.037-0.44-0.116c-0.431-0.244-0.582-0.791-0.338-1.221
				c0.085-0.15,2.12-3.71,5.798-7.165c4.929-4.631,10.451-6.807,15.983-6.285c0.492,0.046,0.854,0.483,0.808,0.976
				s-0.492,0.842-0.976,0.808c-12.116-1.14-19.978,12.412-20.055,12.549C486.848,96.464,486.545,96.627,486.232,96.627z"/>
			<path fill="#36434C" d="M106.328,81.084c-0.38,0-0.732-0.244-0.854-0.625c-0.013-0.041-1.328-4.083-5.027-8.248
				c-4.938-5.561-11.564-8.701-19.693-9.334c-0.494-0.038-0.862-0.469-0.824-0.962c0.039-0.494,0.474-0.864,0.962-0.824
				c20.619,1.605,26.235,18.655,26.29,18.828c0.148,0.471-0.113,0.974-0.584,1.123C106.509,81.07,106.417,81.084,106.328,81.084z"/>
			<path fill="#36434C" d="M94.333,92.308c-0.262,0-0.521-0.114-0.698-0.333c-0.127-0.158-12.859-15.723-26.882-14.969
				c-0.483,0.038-0.916-0.352-0.943-0.846s0.353-0.917,0.846-0.943c6.216-0.332,13.093,2.273,19.906,7.541
				c5.1,3.943,8.333,7.925,8.467,8.092c0.311,0.385,0.25,0.949-0.135,1.26C94.729,92.243,94.53,92.308,94.333,92.308z"/>
			<path fill="#36434C" d="M79.722,104.466c-0.31,0-0.61-0.16-0.776-0.447c-0.076-0.131-7.678-12.97-21.288-12.97
				c-0.172,0-0.343,0.002-0.518,0.006c-0.495,0.023-0.905-0.379-0.917-0.874s0.379-0.905,0.874-0.917
				c15.02-0.389,23.064,13.278,23.399,13.858c0.247,0.428,0.101,0.976-0.328,1.223C80.028,104.427,79.874,104.466,79.722,104.466z"
				/>
			<path fill="#C6D7EA" d="M169.674,278.253c-0.366,0-0.709-0.226-0.842-0.59c-16.305-44.707,19.306-86.576,19.667-86.994
				c0.324-0.374,0.889-0.415,1.263-0.091s0.415,0.889,0.091,1.264c-0.354,0.41-35.278,41.501-19.338,85.208
				c0.169,0.465-0.07,0.979-0.535,1.148C169.879,278.236,169.776,278.253,169.674,278.253z"/>
			<path fill="#C6D7EA" d="M400.385,257.066c-0.041,0-0.083-0.003-0.126-0.009c-0.489-0.069-0.831-0.522-0.762-1.012
				c5.585-39.71-29.421-68.339-29.774-68.624c-0.386-0.31-0.447-0.874-0.138-1.259c0.309-0.386,0.873-0.448,1.259-0.138
				c0.362,0.291,36.156,29.538,30.427,70.271C401.208,256.742,400.824,257.066,400.385,257.066z"/>
			<path fill="#9BA9B9" d="M265.706,171.734c-0.074,0-0.145-0.005-0.213-0.014c-7.946-1.035-22.523-16.128-23.14-16.77
				c-0.34-0.354-0.354-0.939-0.003-1.283c0.351-0.346,0.891-0.364,1.238-0.016c0.205,0.21,14.809,15.338,22.138,16.292
				c-0.01-0.014,0.626-0.203,2.515-2.51c3.414-4.176,7.98-11.692,8.026-11.767c0.256-0.423,0.808-0.558,1.23-0.302
				c0.423,0.256,0.558,0.808,0.302,1.23c-0.189,0.312-4.678,7.7-8.172,11.973C267.452,171.226,266.422,171.734,265.706,171.734z"/>
			<path fill="#9BA9B9" d="M302.115,172.061c-0.309,0-0.61-0.035-0.906-0.109c-1.536-0.386-3.619-1.863-6.371-4.515
				c-4.596-4.428-9.487-10.693-9.536-10.756c-0.304-0.39-0.233-0.953,0.156-1.257c0.393-0.304,0.953-0.233,1.258,0.157
				c0.048,0.062,4.862,6.228,9.365,10.566c3.096,2.984,4.734,3.859,5.563,4.067c3.903,0.97,11.457-9.679,15.283-16.63
				c0.24-0.433,0.783-0.592,1.217-0.353c0.434,0.239,0.592,0.783,0.354,1.217C317.466,156.322,308.604,172.061,302.115,172.061z"/>
		</g>
	</g>
	<path fill="#C4CFD7" d="M389.121,176.18c-0.258,0-0.514-0.11-0.69-0.324c-0.315-0.381-0.263-0.945,0.118-1.261
		c0.199-0.166,20.329-16.519,49.165-11.121c0.486,0.091,0.807,0.559,0.716,1.045c-0.092,0.486-0.561,0.809-1.046,0.715
		c-27.984-5.236-47.499,10.579-47.692,10.739C389.524,176.113,389.322,176.18,389.121,176.18z"/>
	<path fill="#C4CFD7" d="M171.398,187.49c-0.25,0-0.5-0.104-0.677-0.309c-3.817-4.395-10.688-4.106-10.756-4.107
		c-0.479,0.032-0.914-0.355-0.939-0.85c-0.025-0.494,0.354-0.914,0.848-0.939c0.321-0.016,7.801-0.343,12.2,4.721
		c0.325,0.374,0.285,0.939-0.089,1.264C171.816,187.418,171.606,187.49,171.398,187.49z"/>
	<path fill="#42170F" d="M369.412,128.293c-0.058,0-0.115-0.008-0.173-0.024c-0.343-0.095-0.544-0.45-0.449-0.793
		c0.006-0.023,0.582-2.188-0.38-4.058c-0.033,0.023-0.067,0.046-0.102,0.068c-2.177,1.447-4.882,1.939-7.229,1.315
		c-2.182-0.578-2.746-1.885-2.547-2.915c0.295-1.521,2.312-2.881,5.185-2.525c2.169,0.269,3.826,1.004,4.94,2.19
		c0.692-0.687,1.135-1.449,1.235-2.165c0.156-1.122-0.073-2.354-0.919-3.335c-0.22,0.203-0.464,0.396-0.732,0.58
		c-2.812,1.919-7.794,2.278-9.69,0.696c-0.641-0.534-0.824-1.238-0.505-1.929c0.788-1.708,4.629-2.857,7.757-2.322
		c1.245,0.213,2.237,0.61,3.016,1.126c0.404-0.743,0.451-1.586,0.139-2.522c-0.257-0.768-1.051-1.512-2.122-2.101
		c-0.338,0.622-0.79,1.171-1.343,1.588c-1.61,1.215-4.593,1.909-6.655,1.547c-1.016-0.179-1.771-0.609-2.183-1.245
		c-0.472-0.727-0.512-1.515-0.112-2.218c0.78-1.375,3.207-2.267,5.919-2.171c1.179,0.042,2.469,0.309,3.656,0.759
		c0.229-0.957,0.17-1.988-0.243-2.804c-0.28-0.553-1.17-1.042-2.363-1.366c-0.808,0.996-1.895,1.869-3.049,2.521
		c-2.319,1.307-4.303,1.374-5.055,0.168c-0.73-1.173-0.53-2.038-0.233-2.556c1.026-1.794,4.461-1.844,5.492-1.823
		c0.725,0.019,1.515,0.094,2.289,0.24c0.629-1.002,0.884-2.111,0.346-3.171c-0.388-0.763-1.021-1.183-1.684-1.406
		c-0.081,0.358-0.212,0.717-0.393,1.074c-0.979,1.925-3.402,3.576-5.294,3.604c-0.898,0.036-1.626-0.36-2.004-1.05
		c-0.416-0.761-0.373-1.618,0.122-2.412c1-1.605,3.823-2.833,6.289-2.733c-0.082-0.291-0.221-0.573-0.414-0.848
		c-2.693-3.808-10.465-0.083-10.543-0.044c-0.32,0.153-0.707,0.022-0.862-0.298c-0.156-0.32-0.022-0.706,0.298-0.862
		c0.358-0.175,8.841-4.233,12.16,0.459c0.396,0.559,0.633,1.162,0.71,1.786c1.258,0.332,2.218,1.069,2.765,2.146
		c0.696,1.372,0.514,2.789-0.183,4.08c1.244,0.394,2.301,1.01,2.756,1.909c0.598,1.18,0.666,2.621,0.297,3.927
		c1.372,0.722,2.466,1.712,2.859,2.892c0.462,1.383,0.329,2.674-0.363,3.775c1.229,1.322,1.559,3.041,1.353,4.518
		c-0.147,1.053-0.763,2.115-1.737,3.032c1.371,2.381,0.633,5.104,0.6,5.224C369.952,128.107,369.694,128.293,369.412,128.293z
		 M362.805,120.594c-1.771,0-2.869,0.832-3.006,1.538c-0.115,0.593,0.487,1.125,1.61,1.422c2.002,0.529,4.312,0.103,6.186-1.142
		c0.02-0.014,0.039-0.027,0.06-0.04c-0.908-0.924-2.282-1.505-4.096-1.73C363.295,120.61,363.044,120.594,362.805,120.594z
		 M364.138,114.228c-2.458,0-4.591,0.999-4.921,1.711c-0.041,0.09-0.088,0.191,0.16,0.398c1.318,1.098,5.665,0.916,8.137-0.772
		c0.17-0.115,0.325-0.234,0.469-0.357c-0.621-0.39-1.411-0.691-2.396-0.86C365.098,114.265,364.611,114.228,364.138,114.228z
		 M362.056,108.365c-2.216,0-3.953,0.751-4.392,1.524c-0.108,0.191-0.198,0.463,0.072,0.88c0.269,0.413,0.868,0.596,1.324,0.676
		c1.693,0.296,4.336-0.312,5.654-1.307c0.377-0.285,0.692-0.665,0.938-1.101c-1.002-0.38-2.129-0.626-3.238-0.667
		C362.294,108.367,362.174,108.365,362.056,108.365z M360.311,103.267c-1.984,0-3.612,0.471-4.017,1.178
		c-0.066,0.116-0.268,0.468,0.209,1.234c0.28,0.449,1.633,0.344,3.325-0.61c0.727-0.41,1.525-0.997,2.2-1.689
		c-0.449-0.059-0.917-0.096-1.396-0.108C360.524,103.268,360.417,103.267,360.311,103.267z M360.077,97.411
		c-1.948,0-4.205,0.961-4.934,2.131c-0.33,0.529-0.206,0.887-0.084,1.111c0.053,0.096,0.247,0.418,0.853,0.378
		c1.279-0.019,3.331-1.263,4.162-2.898c0.123-0.242,0.214-0.48,0.272-0.715c-0.007,0-0.014,0-0.021-0.001
		C360.243,97.413,360.16,97.411,360.077,97.411z"/>
	
		<linearGradient id="SVGID_1_" gradientUnits="userSpaceOnUse" x1="247.308" y1="252.3803" x2="247.308" y2="302.5158" gradientTransform="matrix(1 0 0 -1 0 385.2756)">
		<stop  offset="0" style="stop-color:#FFFFFF;stop-opacity:0"/>
		<stop  offset="0.0363" style="stop-color:#EFEBEA;stop-opacity:0.0484"/>
		<stop  offset="0.1455" style="stop-color:#C1B3B1;stop-opacity:0.1942"/>
		<stop  offset="0.255" style="stop-color:#9B847F;stop-opacity:0.3402"/>
		<stop  offset="0.3622" style="stop-color:#7B5D57;stop-opacity:0.4833"/>
		<stop  offset="0.4667" style="stop-color:#623E38;stop-opacity:0.6228"/>
		<stop  offset="0.5677" style="stop-color:#502821;stop-opacity:0.7575"/>
		<stop  offset="0.6637" style="stop-color:#461B14;stop-opacity:0.8856"/>
		<stop  offset="0.7494" style="stop-color:#42170F"/>
	</linearGradient>
	<path fill="url(#SVGID_1_)" d="M275.647,103.137c0,9.23-8.856,16.874-28.339,16.712c-20.861-0.174-28.339-7.482-28.339-16.712
		s13.081-13.23,28.733-13.23S275.647,93.907,275.647,103.137z"/>
	
		<linearGradient id="SVGID_2_" gradientUnits="userSpaceOnUse" x1="310.526" y1="252.3266" x2="310.526" y2="302.4621" gradientTransform="matrix(1 0 0 -1 0 385.2756)">
		<stop  offset="0" style="stop-color:#FFFFFF;stop-opacity:0"/>
		<stop  offset="0.0363" style="stop-color:#EFEBEA;stop-opacity:0.0484"/>
		<stop  offset="0.1455" style="stop-color:#C1B3B1;stop-opacity:0.1942"/>
		<stop  offset="0.255" style="stop-color:#9B847F;stop-opacity:0.3402"/>
		<stop  offset="0.3622" style="stop-color:#7B5D57;stop-opacity:0.4833"/>
		<stop  offset="0.4667" style="stop-color:#623E38;stop-opacity:0.6228"/>
		<stop  offset="0.5677" style="stop-color:#502821;stop-opacity:0.7575"/>
		<stop  offset="0.6637" style="stop-color:#461B14;stop-opacity:0.8856"/>
		<stop  offset="0.7494" style="stop-color:#42170F"/>
	</linearGradient>
	<path fill="url(#SVGID_2_)" d="M338.865,102.309c0,9.23-8.856,16.874-28.339,16.712c-20.861-0.174-28.339-7.482-28.339-16.712
		s13.081-13.23,28.733-13.23S338.865,93.079,338.865,102.309z"/>
	<path fill="#FBF2C4" d="M288.644,104.379c0,1.3-4.45-0.168-10.115-0.168s-10.4,1.468-10.4,0.168s4.592-2.354,10.258-2.354
		C284.051,102.025,288.644,103.079,288.644,104.379z"/>
	<path fill="#42170F" d="M349.766,95.041c0.33,1.209-3.456,0.776-7.801,1.962c-4.345,1.187-7.604,3.544-7.934,2.335
		s2.924-3.151,7.27-4.338C345.645,93.813,349.435,93.832,349.766,95.041z"/>
	<path fill="#42170F" d="M203.946,98.219c-0.341,1.248,3.715,0.841,8.388,2.117s8.194,3.753,8.535,2.504
		c0.341-1.248-3.171-3.295-7.844-4.571C208.351,96.993,204.287,96.971,203.946,98.219z"/>
	<path fill="#36434C" d="M282.975,351.164c-4.943,0-9.642-0.285-13.162-1.066c-2.125-0.473-4.266-4.594-4.932-7.261
		c-0.57-2.283-0.308-3.974,0.76-4.889c2.817-2.414,10.458-4.03,17.846-5.594c4.771-1.01,11.266-2.384,12.11-3.423
		c-2.804-8.876-13.447-6.542-24.715-4.074c-9.017,1.977-18.339,4.019-24.078,0.137c-5.309-3.591-17.617-13.36-17.248-26.488
		c0.125-4.441,1.862-8.301,4.426-9.833c0.426-0.253,0.975-0.114,1.229,0.311c0.254,0.424,0.115,0.975-0.31,1.229
		c-1.68,1.003-3.431,3.973-3.554,8.344c-0.344,12.24,11.396,21.529,16.46,24.954c5.103,3.45,14.043,1.492,22.691-0.402
		c11.613-2.544,23.624-5.177,26.851,5.424c0.127,0.419,0.071,0.849-0.161,1.242c-0.974,1.648-5.469,2.67-13.33,4.333
		c-6.835,1.446-14.582,3.086-17.051,5.203c-0.495,0.424-0.565,1.58-0.188,3.093c0.739,2.957,2.726,5.756,3.583,5.946
		c9.665,2.146,30.328,0.371,38.271-0.77c0.488-0.067,0.942,0.27,1.014,0.76c0.07,0.489-0.27,0.943-0.76,1.014
		C305.039,349.882,293.462,351.164,282.975,351.164z"/>
</g>
<polygon fill="#222323" points="200.045,141.339 239.406,148.999 249.6,229.749 242.561,280.43 224.541,282.964 216.094,280.993 "/>
<polygon fill="#222323" points="356.311,146.407 321.558,147.754 308.446,215.108 294.368,263.818 350.116,280.43 "/>
<polygon fill="#C6D7EA" points="492.492,156.356 473.533,156.919 475.974,182.822 492.116,215.108 "/>
</svg>
