<?xml version="1.0" encoding="utf-8"?>
<!-- Generator: Adobe Illustrator 24.2.1, SVG Export Plug-In . SVG Version: 6.00 Build 0)  -->
<svg version="1.1" id="Layer_1" xmlns="http://www.w3.org/2000/svg" xmlns:xlink="http://www.w3.org/1999/xlink" x="0px" y="0px"
	 width="14.104px" height="14.12px" viewBox="0 0 14.104 14.12" enable-background="new 0 0 14.104 14.12" xml:space="preserve">
<g>
	<path fill="none" d="M7.073,3.896c-1.6,0-2.922,1.189-3.142,2.73h0.156v0.869h-0.16c0.206,1.556,1.535,2.764,3.146,2.764
		s2.94-1.207,3.145-2.764H10.13V6.626h0.084C9.994,5.085,8.673,3.896,7.073,3.896z M7.073,9.567c-1.375,0-2.49-1.115-2.49-2.49
		s1.115-2.49,2.49-2.49s2.49,1.115,2.49,2.49S8.448,9.567,7.073,9.567z"/>
	<path fill="#555148" d="M7.073,3.896c1.6,0,2.921,1.189,3.141,2.73h3.88C13.869,2.934,10.799,0,7.052,0S0.235,2.935,0.009,6.626
		h3.921C4.151,5.085,5.473,3.896,7.073,3.896z"/>
	<path fill="#555148" d="M7.073,10.258c-1.612,0-2.941-1.207-3.146-2.764H0.009c0.226,3.69,3.296,6.626,7.043,6.626
		s6.817-2.935,7.043-6.626h-3.876C10.013,9.051,8.685,10.258,7.073,10.258z"/>
	<circle fill="#555148" cx="7.073" cy="7.077" r="2.398"/>
</g>
</svg>
