<?xml version="1.0" encoding="utf-8"?>
<!-- Generator: Adobe Illustrator 24.2.1, SVG Export Plug-In . SVG Version: 6.00 Build 0)  -->
<svg version="1.1" id="Layer_1" xmlns="http://www.w3.org/2000/svg" xmlns:xlink="http://www.w3.org/1999/xlink" x="0px" y="0px"
	 width="10.959px" height="14.468px" viewBox="0 0 10.959 14.468" enable-background="new 0 0 10.959 14.468" xml:space="preserve">
<g>
	<path fill="none" d="M6.63,1.362H3.541v4.963h2.993c0.891,0,1.573-0.21,2.047-0.63c0.474-0.419,0.711-1.027,0.711-1.82
		c0-0.753-0.237-1.356-0.711-1.807C8.107,1.614,7.457,1.379,6.63,1.362z"/>
	<path fill="#F39719" d="M9.783,1.058C9,0.353,7.917,0,6.534,0H1.875v8.988H0v1.362h1.875v1.302H0v1.362h1.875v1.454h1.666v-1.454
		h2.881v-1.362H3.541V10.35h2.881V8.988H3.541V7.687h2.976c1.429,0,2.526-0.331,3.292-0.993s1.15-1.606,1.15-2.833
		C10.959,2.698,10.567,1.764,9.783,1.058z M8.582,5.694c-0.474,0.421-1.157,0.63-2.047,0.63H3.541V1.362H6.63
		c0.827,0.017,1.478,0.252,1.952,0.704S9.293,3.12,9.293,3.874C9.293,4.668,9.056,5.275,8.582,5.694z"/>
</g>
</svg>
