<?xml version="1.0" encoding="utf-8"?>
<!-- Generator: Adobe Illustrator 24.2.1, SVG Export Plug-In . SVG Version: 6.00 Build 0)  -->
<svg version="1.1" id="Layer_1" xmlns="http://www.w3.org/2000/svg" xmlns:xlink="http://www.w3.org/1999/xlink" x="0px" y="0px"
	 width="111.746px" height="182.468px" viewBox="0 0 111.746 182.468" enable-background="new 0 0 111.746 182.468"
	 xml:space="preserve">
<g>
	<path fill="#E84882" d="M31.358,104.548c0-4.274,1.395-7.846,4.194-10.726c2.789-2.88,6.321-4.314,10.595-4.314
		c6.742,0,12.823-1.023,18.251-3.08c5.428-2.057,9.742-5.388,12.943-9.993c3.211-4.595,4.816-10.686,4.816-18.241
		c0-5.589-1.365-10.525-4.074-14.799s-6.411-7.645-11.097-10.104c-4.686-2.468-9.983-3.702-15.903-3.702
		c-4.605,0-8.92,0.823-12.943,2.468c-4.033,1.645-7.686,3.863-10.977,6.652c-2.629,2.308-5.789,3.993-9.492,5.057
		c-3.702,1.074-7.445,0.211-11.217-2.589c-3.953-2.96-6.09-6.492-6.411-10.605c-0.331-4.104,1.234-7.886,4.686-11.338
		c5.91-6.08,12.853-10.806,20.829-14.177S42.043,0,51.083,0c11.338,0,21.572,2.589,30.702,7.766
		c9.12,5.177,16.395,12.12,21.823,20.839c5.418,8.709,8.137,18.572,8.137,29.589c0,8.217-1.234,15.492-3.702,21.823
		c-2.468,6.331-5.96,11.749-10.475,16.274c-4.525,4.525-9.783,8.137-15.783,10.846c-6.01,2.709-12.542,4.645-19.605,5.799
		c-0.331,0.161-0.622,0.331-0.863,0.492c-0.251,0.161-0.371,0.411-0.371,0.732v9.13c0,4.274-1.395,7.846-4.194,10.726
		c-2.799,2.88-6.331,4.314-10.605,4.314s-7.806-1.435-10.595-4.314c-2.799-2.88-4.194-6.452-4.194-10.726V104.548z M44.923,182.468
		c-4.776,0-8.428-1.274-10.977-3.823c-2.548-2.548-3.823-6.201-3.823-10.977v-4.184c0-4.766,1.274-8.428,3.823-10.977
		c2.548-2.549,6.201-3.823,10.977-3.823h3.201c4.766,0,8.418,1.274,10.977,3.823c2.538,2.548,3.823,6.211,3.823,10.977v4.184
		c0,4.776-1.284,8.428-3.823,10.977c-2.559,2.548-6.211,3.823-10.977,3.823H44.923z"/>
</g>
</svg>
