<?xml version="1.0" encoding="utf-8"?>
<!-- Generator: Adobe Illustrator 24.2.1, SVG Export Plug-In . SVG Version: 6.00 Build 0)  -->
<svg version="1.1" id="Layer_1" xmlns="http://www.w3.org/2000/svg" xmlns:xlink="http://www.w3.org/1999/xlink" x="0px" y="0px"
	 width="334.625px" height="491.663px" viewBox="0 0 334.625 491.663" enable-background="new 0 0 334.625 491.663"
	 xml:space="preserve">
<g>
	<g>
		<path fill="none" stroke="#000000" stroke-width="2.5334" stroke-linecap="round" stroke-linejoin="round" d="M241.434,263.775
			c0,0-2.14,13.196,6.063,22.825"/>
		<g id="XMLID_7_">
			<g>
				<path fill="#FFFFFF" d="M308.601,306.338c3.078,2.837-0.995,14.052-16.049,40.888c2.137-5.961,3.35-12.124,3.451-18.303
					c0.093-5.876-1.041-10.818-3.016-14.992C295.653,311.794,305.919,303.859,308.601,306.338z"/>
				<path fill="#E17E9F" d="M8.885,310.612l-0.583-0.233c0,0-1.896-62.774,20.93-98.913c20.013-31.686,46.6-41.844,52.305-46.6
					c5.705-4.756,19.026-23.774,38.043-23.774c0,0,47.719-24.792,103.739,5.844s52.118,91.157,52.118,91.157
					s13.787,31.391-1.904,57.784l-0.187,0.389c7.904,3.692,15.567,9.054,19.64,17.666c1.974,4.174,3.109,9.116,3.016,14.992
					c-0.101,6.179-1.313,12.342-3.451,18.303c0,0.008,0,0.008-0.008,0.016c-8.386,23.378-30.979,43.624-55.981,49.686
					c-27.847,6.746-86.377,8.526-122.143-16.399c-3.396,16.585-3.497,36.746,9.917,50.634
					c26.627,27.582,93.201,43.748,88.444,51.357c-4.749,7.609-123.27,29.354-182.601-41.844
					C-7.351,395.637-4.009,342.314,8.885,310.612z"/>
			</g>
		</g>
		<path fill="none" stroke="#E84882" stroke-width="4.3787" stroke-linecap="round" stroke-miterlimit="10" d="M220.018,266.771
			c0,0,16.438,13.561,22.602,16.849s22.602,6.986,27.123,10.685"/>
		<path fill="none" stroke="#E84882" stroke-width="4.3787" stroke-linecap="round" stroke-miterlimit="10" d="M240.977,262.662
			c0,0-2.055,13.151,2.877,20.548"/>
		<path fill="none" stroke="#E84882" stroke-width="4.3787" stroke-linecap="round" stroke-miterlimit="10" d="M127.356,346.283
			c0,0-6.986,17.26-9.041,26.301"/>
		<path fill="none" stroke="#E84882" stroke-width="4.3787" stroke-linecap="round" stroke-miterlimit="10" d="M13.111,304.723
			c0,0,4.11-12.74,10.274-18.493"/>
	</g>
	<g>
		<g>
			<g id="XMLID_6_">
				<g>
					<path fill="#E6ADC3" d="M313.707,126.14c1.085,0.758,26.291,41.982-2.615,61.352c-43.171,15.923-71.793-12.796-71.793-12.796
						l-0.3-0.4c1.681-1.308,3.13-2.674,4.159-4.067c2.395-3.244,4.619-8.486,7.678-13.898c0,0,7.336,2.725,10.526,0.437
						c2.914-2.079,0.178-11.795-0.322-13.461c1.951-1.64,4.139-3.081,6.616-4.236c10.012-4.65,25.614-11.692,38.347-19.883
						l0.85,1.327c0,0,2.985,1.929,7.007,5.446L313.707,126.14z"/>
					<path fill="#F4ECCA" d="M239.299,174.696c0,0,28.621,28.719,71.793,12.796c5.837-2.148,11.944-5.112,18.275-9.076l0.143,0.086
						c-5.273,8.418-14.457,16.158-26.802,21.755c-18.242,8.27-40.785,9.23-57.958,8.32c-7.633-0.41-14.201-1.191-18.87-1.861
						c-15.185-2.181-38.323-6.258-46.555-21.741c-8.944-16.798,11.963-26.973,20.27-29.236c2.799-0.763,6.94-6.695,12.367-15.207
						c0.004-0.01,0.012-0.013,0.016-0.023c0.765-1.046,1.465-2.15,2.089-3.299c10.616-16.805,25.599-41.253,44.66-56.99
						c2.666-2.198,5.662-4.302,8.877-6.232c9.794-5.901,21.632-10.244,32.476-11.12c9.435-0.761,18.116,1.098,24.035,6.856
						c14.526,14.132,3.952,29.542-2.45,36.751c-0.193,0.21-0.371,0.414-0.552,0.611c-2.543,2.785-5.734,5.516-9.331,8.15
						c-1.834,1.343-3.768,2.667-5.775,3.953c-12.733,8.19-28.335,15.233-38.347,19.883c-2.477,1.154-4.665,2.596-6.616,4.236
						c-4.414,3.717-7.608,8.43-10.205,13.024c-3.059,5.412-5.284,10.653-7.678,13.898c-1.029,1.393-2.478,2.759-4.159,4.067
						L239.299,174.696z"/>
					<path fill="#DF6895" d="M329.366,178.416c-6.331,3.964-12.438,6.929-18.275,9.076c28.907-19.37,3.7-60.594,2.615-61.352
						l0.155-0.178c6.82,5.946,16.622,16.454,20.005,29.901c1.862,7.42,0.245,15.296-4.358,22.639L329.366,178.416z"/>
					<path fill="#FFFFFF" d="M321.111,107.086c0.181-0.197,0.36-0.401,0.552-0.611c0.803,3.067,2.954,12.212-0.053,12.556
						c-2.625,0.294-7.405-2.33-9.831-3.795C315.377,112.603,318.568,109.871,321.111,107.086z"/>
					<path fill="#FFFFFF" d="M299.992,61.74l0.086,1.128c-10.844,0.875-22.682,5.219-32.476,11.12l-0.282-0.482
						c-14.93-20.95,0.643-37.834,21.259-27.069l0.091-0.086C292.628,50.845,296.42,55.956,299.992,61.74z M279.183,61.146
						c-1.014-2.566-3.918-3.825-6.484-2.811s-3.818,3.915-2.804,6.481s3.908,3.821,6.474,2.807S280.197,63.712,279.183,61.146z"/>
					<path fill="#E17E9F" d="M100.379,139.213c-2.69,1.08-5.633,1.775-8.806,1.95c-18.015,0.977-31.033-11.262-34.321-27.344
						c-3.291-16.09,4.38-35.483,26.498-44.223c12.873-5.087,26.021-3.346,35.864,1.79l0.058-0.107c0,0,21.07-30.847,53.092-45.548
						c4.987-2.288,14.31-5.722,26.02-7.875c16.334-3.011,37.321-3.533,57.68,5.019c11.213,4.711,22.241,12.17,32.207,23.475
						l-0.091,0.086c-20.616-10.765-36.19,6.119-21.259,27.069l0.282,0.482c-3.215,1.931-6.211,4.034-8.877,6.232
						c-19.06,15.738-34.044,40.185-44.66,56.99c2.873-5.313,4.027-11.719,2.156-18.969c-3.581-13.928-22.267-27.252-39.346-19.993
						c-22.458,9.551-22.558,32.179-17.171,41.942c10.27,18.588,30.869,14.719,38.562,11.219c5.13-2.328,10.134-6.035,13.694-10.876
						c-5.428,8.512-9.568,14.444-12.367,15.207c-8.307,2.263-29.214,12.438-20.27,29.236c8.232,15.483,31.37,19.56,46.555,21.741
						c4.669,0.67,11.237,1.451,18.87,1.861c-13.536,3.853-72.197,17.882-116.533-14.145
						C105.489,178.008,100.614,141.034,100.379,139.213z"/>
					<path fill="#371D10" d="M272.699,58.335c2.566-1.014,5.47,0.245,6.484,2.811s-0.248,5.463-2.814,6.477s-5.46-0.241-6.474-2.807
						S270.133,59.349,272.699,58.335z"/>
					<path fill="#E17E9F" d="M198.764,17.765c0-0.001,13.321-19.329,32.389-17.663c21.19,1.855,25.337,22.713,25.337,22.713
						l-0.026,0.061"/>
					<path fill="#FFFFFF" d="M261.041,143.308c0.5,1.666,3.236,11.382,0.322,13.461c-3.19,2.289-10.526-0.437-10.526-0.437
						C253.433,151.737,256.627,147.024,261.041,143.308z"/>
					<path fill="#FFFFFF" d="M176.875,98.247c17.079-7.259,35.765,6.066,39.346,19.993c1.87,7.25,0.716,13.656-2.156,18.969
						c-0.721,1.137-1.414,2.238-2.089,3.299c-0.004,0.01-0.012,0.013-0.016,0.023c-3.561,4.842-8.564,8.548-13.694,10.876
						c-7.693,3.499-28.292,7.369-38.562-11.219C154.317,130.426,154.418,107.798,176.875,98.247z M191.093,127.017
						c-1.214-3.072-4.683-4.576-7.755-3.362c-3.072,1.214-4.576,4.683-3.362,7.755s4.683,4.576,7.755,3.362
						C190.803,133.558,192.307,130.089,191.093,127.017z"/>
					<circle fill="#371D10" cx="185.535" cy="129.213" r="5.977"/>
				</g>
				<g>
					
						<line fill="none" stroke="#371D10" stroke-width="4.3787" stroke-linecap="round" stroke-linejoin="round" stroke-miterlimit="10" x1="277.238" y1="107.676" x2="286.023" y2="108.55"/>
					
						<line fill="none" stroke="#371D10" stroke-width="4.3787" stroke-linecap="round" stroke-linejoin="round" stroke-miterlimit="10" x1="306.93" y1="92.876" x2="308.678" y2="86.302"/>
				</g>
			</g>
		</g>
		<path fill="none" stroke="#E6ADC3" stroke-width="4.3787" stroke-linecap="round" stroke-miterlimit="10" d="M217.6,185.24
			c0,0,16.968-6.263,20.879-10.902s15.389-26.101,21.496-30.588c13.013-9.561,34.931-13.361,45.189-20.949"/>
		<path fill="none" stroke="#E84882" stroke-width="4.3787" stroke-linecap="round" stroke-miterlimit="10" d="M87.242,97.176
			c0,0,28.165-1.408,29.299,19.354c0.758,13.885-13.913,24.057-25.441,25.077c-12.945,1.146-40.793-8.184-34.779-41.049
			s52.642-51.291,77.743-13.487"/>
		<path fill="none" stroke="#E84882" stroke-width="4.3787" stroke-linecap="round" stroke-miterlimit="10" d="M104.28,155.687
			c0,0,4.377,31.511,28.923,42.537"/>
	</g>
</g>
<path fill="none" stroke="#E6ADC3" stroke-width="4.3787" stroke-linecap="round" stroke-miterlimit="10" d="M293.047,309.152
	c0,0,14.948-11.863,18.039-9.01s1.776,9.779-13.441,36.884"/>
</svg>
