<?xml version="1.0" encoding="utf-8"?>
<!-- Generator: Adobe Illustrator 24.2.1, SVG Export Plug-In . SVG Version: 6.00 Build 0)  -->
<svg version="1.1" id="Layer_1" xmlns="http://www.w3.org/2000/svg" xmlns:xlink="http://www.w3.org/1999/xlink" x="0px" y="0px"
	 width="193.394px" height="185.102px" viewBox="0 0 193.394 185.102" enable-background="new 0 0 193.394 185.102"
	 xml:space="preserve">
<g>
	<path fill="#C4AD63" d="M192.806,69.828c-1.411-4.344-5.167-7.51-9.687-8.167l-52.281-7.597L107.458,6.69
		C105.436,2.593,101.265,0,96.697,0s-8.739,2.593-10.761,6.689l-23.38,47.374L10.275,61.66C5.754,62.317,2,65.483,0.588,69.827
		S0.353,78.94,3.624,82.129l37.831,36.875l-8.931,52.069c-0.772,4.502,1.078,9.052,4.774,11.737
		c3.695,2.685,8.594,3.04,12.637,0.914l46.762-24.584l46.761,24.584c1.756,0.923,3.673,1.378,5.583,1.378
		c2.488,0,4.964-0.773,7.055-2.292c3.696-2.685,5.546-7.234,4.774-11.737l-8.931-52.069l37.831-36.875
		C193.04,78.94,194.218,74.172,192.806,69.828z"/>
	<path fill="#F9DF8A" d="M137.589,112.284c0.047-0.203,0.097-0.404,0.14-0.608c11.19-0.651,19.739-4.159,19.739-8.39
		c0-4.209-8.458-7.701-19.561-8.379c-1.478-7.718-5.061-14.689-10.141-20.279c3.454-8.373,3.966-15.485,0.795-17.316
		c-2.942-1.699-8.236,1.624-13.397,7.841c-5.574-2.736-11.84-4.278-18.468-4.278c-6.785,0-13.188,1.62-18.86,4.479
		c-5.964-6.763-12.088-10.342-15.124-8.314c-3.165,2.114-2.001,9.657,2.395,18.188c-4.809,5.496-8.206,12.255-9.629,19.718
		c-10.809,0.764-18.966,4.207-18.966,8.34c0,4.156,8.247,7.612,19.143,8.352c1.586,7.438,5.137,14.146,10.091,19.552
		c-8.745,8.996-13.202,18.72-9.962,21.959c3.319,3.319,13.45-1.429,22.627-10.607c0.44-0.44,0.86-0.883,1.278-1.326
		c4.057,1.801,8.45,2.981,13.063,3.411c0.16,12.173,1.701,18.701,3.944,18.701c2.246,0,4.377-6.559,4.532-18.758
		c3.938-0.423,7.71-1.395,11.245-2.83c0.096,0.113,0.184,0.226,0.281,0.339c8.47,9.834,18.22,15.322,21.777,12.259
		c3.408-2.935-0.118-12.656-7.868-22.116c3.356-3.423,6.126-7.419,8.159-11.827c0.317,0.065,0.635,0.13,0.955,0.194
		c12.731,2.524,19.169,1.399,19.625-0.903C155.857,117.394,150.243,114.809,137.589,112.284z"/>
</g>
<circle fill="#D32418" cx="96.991" cy="102.348" r="23.941"/>
<circle fill="#FFFFFF" cx="86.631" cy="92.551" r="3.59"/>
</svg>
