<?xml version="1.0" encoding="utf-8"?>
<!-- Generator: Adobe Illustrator 24.2.1, SVG Export Plug-In . SVG Version: 6.00 Build 0)  -->
<svg version="1.1" id="Layer_1" xmlns="http://www.w3.org/2000/svg" xmlns:xlink="http://www.w3.org/1999/xlink" x="0px" y="0px"
	 width="193.394px" height="185.102px" viewBox="0 0 193.394 185.102" enable-background="new 0 0 193.394 185.102"
	 xml:space="preserve">
<g>
	<path fill="#FFD213" d="M192.806,69.828c-1.411-4.344-5.167-7.51-9.687-8.167l-52.281-7.597L107.458,6.69
		C105.436,2.593,101.265,0,96.697,0s-8.739,2.593-10.761,6.689l-23.38,47.374L10.275,61.66C5.754,62.317,2,65.483,0.588,69.827
		S0.353,78.94,3.624,82.129l37.831,36.875l-8.931,52.069c-0.772,4.502,1.078,9.052,4.774,11.737
		c3.695,2.685,8.594,3.04,12.637,0.914l46.762-24.584l46.761,24.584c1.756,0.923,3.673,1.378,5.583,1.378
		c2.488,0,4.964-0.773,7.055-2.292c3.696-2.685,5.546-7.234,4.774-11.737l-8.931-52.069l37.831-36.875
		C193.04,78.94,194.218,74.172,192.806,69.828z"/>
</g>
</svg>
